<svg xmlns="http://www.w3.org/2000/svg" width="200" height="160" viewBox="0 0 200 160">
  <g id="boathelm" transform="translate(-739 -248)">
    <rect width="200" height="160" transform="translate(739 248)" fill="none"/>
    <path d="M42.855,19.424a1.077,1.077,0,0,1-1.078-1.078V10.395a1.078,1.078,0,0,1,2.155,0v7.952A1.077,1.077,0,0,1,42.855,19.424Zm-10.777,0A1.077,1.077,0,0,1,31,18.347V10.395a1.078,1.078,0,0,1,2.155,0v7.952A1.077,1.077,0,0,1,32.078,19.424Zm0,96.28A1.077,1.077,0,0,1,31,114.627V106.7a1.078,1.078,0,1,1,2.155,0v7.931A1.077,1.077,0,0,1,32.078,115.7Zm10.777,0a1.077,1.077,0,0,1-1.078-1.078V106.7a1.078,1.078,0,0,1,2.155,0v7.931A1.077,1.077,0,0,1,42.855,115.7ZM32.078,51.281A1.077,1.077,0,0,1,31,50.2V32.788a1.078,1.078,0,0,1,2.155,0V50.2A1.077,1.077,0,0,1,32.078,51.281Zm0,42.074A1.077,1.077,0,0,1,31,92.277V74.818a1.078,1.078,0,0,1,2.155,0v17.46A1.077,1.077,0,0,1,32.078,93.355ZM42.855,51.281A1.077,1.077,0,0,1,41.777,50.2V32.788a1.078,1.078,0,0,1,2.155,0V50.2A1.077,1.077,0,0,1,42.855,51.281Zm0,42.074a1.077,1.077,0,0,1-1.078-1.078V74.818a1.078,1.078,0,0,1,2.155,0v17.46A1.077,1.077,0,0,1,42.855,93.355Z" transform="translate(801.585 265.535)" fill="#2f99bf"/>
    <path d="M62.514,22.238A10.37,10.37,0,1,1,72.883,11.867,10.382,10.382,0,0,1,62.514,22.238Zm0-18.584a8.214,8.214,0,1,0,8.213,8.213A8.223,8.223,0,0,0,62.514,3.654Zm0,137.95a10.37,10.37,0,1,1,10.368-10.371A10.382,10.382,0,0,1,62.514,141.6Zm0-18.584a8.214,8.214,0,1,0,8.213,8.213A8.223,8.223,0,0,0,62.514,123.02ZM50.207,78.01H32.77a1.078,1.078,0,1,1,0-2.155H50.207a1.078,1.078,0,0,1,0,2.155Zm42.051,0H74.821a1.078,1.078,0,0,1,0-2.155H92.258a1.078,1.078,0,0,1,0,2.155ZM50.207,67.233H32.77a1.078,1.078,0,1,1,0-2.155H50.207a1.078,1.078,0,0,1,0,2.155Zm42.051,0H74.821a1.078,1.078,0,0,1,0-2.155H92.258a1.078,1.078,0,0,1,0,2.155ZM18.329,78.01H10.4a1.078,1.078,0,0,1,0-2.155h7.931a1.078,1.078,0,1,1,0,2.155Zm0-10.777H10.4a1.078,1.078,0,0,1,0-2.155h7.931a1.078,1.078,0,1,1,0,2.155Zm96.3,0H106.7a1.078,1.078,0,0,1,0-2.155h7.931a1.078,1.078,0,0,1,0,2.155Zm0,10.777H106.7a1.078,1.078,0,0,1,0-2.155h7.931a1.078,1.078,0,0,1,0,2.155Z" transform="translate(776.537 256.501)" fill="#2f99bf"/>
    <path d="M11.868,66.741A10.37,10.37,0,1,1,22.236,56.37,10.381,10.381,0,0,1,11.868,66.741Zm0-18.584a8.214,8.214,0,1,0,8.213,8.213A8.221,8.221,0,0,0,11.868,48.157ZM131.234,66.741A10.37,10.37,0,1,1,141.6,56.37,10.382,10.382,0,0,1,131.234,66.741Zm0-18.584a8.214,8.214,0,1,0,8.213,8.213A8.223,8.223,0,0,0,131.234,48.157ZM59.05,52.571a1.074,1.074,0,0,1-.762-.316L45.958,39.927A1.078,1.078,0,0,1,47.482,38.4l12.33,12.328a1.078,1.078,0,0,1-.762,1.84ZM88.772,82.293a1.074,1.074,0,0,1-.762-.316L75.659,69.626A1.078,1.078,0,0,1,77.183,68.1L89.534,80.454a1.078,1.078,0,0,1-.762,1.84ZM66.657,44.941a1.072,1.072,0,0,1-.764-.318L53.567,32.3a1.078,1.078,0,0,1,1.524-1.524L67.421,43.1a1.078,1.078,0,0,1-.764,1.838ZM96.379,74.663a1.074,1.074,0,0,1-.762-.316L83.291,62.022a1.078,1.078,0,1,1,1.52-1.528l12.33,12.33a1.078,1.078,0,0,1-.762,1.84ZM36.5,30.026a1.074,1.074,0,0,1-.762-.316l-5.626-5.626A1.078,1.078,0,0,1,31.64,22.56l5.626,5.626a1.078,1.078,0,0,1-.762,1.84Zm7.607-7.63a1.074,1.074,0,0,1-.762-.316l-5.6-5.6a1.078,1.078,0,1,1,1.524-1.524l5.6,5.6a1.078,1.078,0,0,1-.762,1.84ZM112.2,90.483a1.074,1.074,0,0,1-.762-.316l-5.6-5.6a1.078,1.078,0,0,1,1.524-1.524l5.6,5.6a1.078,1.078,0,0,1-.762,1.84Zm-7.607,7.63a1.074,1.074,0,0,1-.762-.316l-5.605-5.6a1.078,1.078,0,0,1,1.524-1.524l5.605,5.6a1.078,1.078,0,0,1-.762,1.84Z" transform="translate(767.501 271.681)" fill="#2f99bf"/>
    <path d="M19.976,30.348a10.37,10.37,0,1,1,7.331-3.037A10.3,10.3,0,0,1,19.976,30.348Zm0-18.584a8.214,8.214,0,0,0-5.809,14.023,8.415,8.415,0,0,0,11.617,0,8.222,8.222,0,0,0,0-11.617h0A8.16,8.16,0,0,0,19.976,11.764Zm84.4,102.982a10.365,10.365,0,1,1,7.333-3.033A10.34,10.34,0,0,1,104.378,114.746Zm0-18.575a8.21,8.21,0,1,0,5.807,2.4A8.187,8.187,0,0,0,104.38,96.171ZM44.956,88.1a1.078,1.078,0,0,1-.762-1.84L56.545,73.912a1.078,1.078,0,0,1,1.524,1.524L45.718,87.787A1.074,1.074,0,0,1,44.956,88.1ZM74.679,58.38a1.078,1.078,0,0,1-.762-1.84L86.245,44.213a1.078,1.078,0,0,1,1.524,1.524L75.44,58.065A1.074,1.074,0,0,1,74.679,58.38ZM37.347,80.473a1.078,1.078,0,0,1-.762-1.84L48.917,66.3a1.078,1.078,0,1,1,1.52,1.528L38.109,80.157A1.074,1.074,0,0,1,37.347,80.473ZM67.07,50.75a1.078,1.078,0,0,1-.762-1.84l12.33-12.328a1.078,1.078,0,0,1,1.524,1.524L67.831,50.435A1.074,1.074,0,0,1,67.07,50.75ZM29.136,103.923a1.078,1.078,0,0,1-.762-1.84l5.6-5.6A1.078,1.078,0,0,1,35.5,98l-5.6,5.6A1.074,1.074,0,0,1,29.136,103.923Zm-7.609-7.63a1.078,1.078,0,0,1-.762-1.84l5.605-5.6a1.078,1.078,0,1,1,1.524,1.524l-5.605,5.6A1.074,1.074,0,0,1,21.527,96.293ZM89.615,28.205a1.078,1.078,0,0,1-.762-1.84l5.605-5.6a1.078,1.078,0,1,1,1.524,1.524l-5.605,5.6A1.074,1.074,0,0,1,89.615,28.205Zm7.609,7.63A1.078,1.078,0,0,1,96.462,34l5.626-5.626a1.078,1.078,0,1,1,1.524,1.524L97.986,35.52A1.074,1.074,0,0,1,97.224,35.835Z" transform="translate(776.874 265.872)" fill="#2f99bf"/>
    <path d="M19.977,114.743a10.363,10.363,0,1,1,7.333-3.033A10.337,10.337,0,0,1,19.977,114.743Zm0-18.573a8.186,8.186,0,0,0-5.807,2.4h0a8.225,8.225,0,1,0,5.807-2.4Zm-6.569,1.64h0ZM104.381,30.34a10.365,10.365,0,1,1,7.333-3.033A10.34,10.34,0,0,1,104.381,30.34Zm0-18.575a8.21,8.21,0,1,0,5.807,2.4A8.187,8.187,0,0,0,104.383,11.765Z" transform="translate(776.87 265.875)" fill="#2f99bf"/>
    <path d="M50.78,82.093a32.554,32.554,0,0,1-5.574-.49,31.6,31.6,0,0,1-12.263-5.092,31.483,31.483,0,0,1-12.97-20.156,32,32,0,0,1,0-11.149,30.549,30.549,0,0,1,5.1-12.248A31.15,31.15,0,0,1,45.2,19.994a30.612,30.612,0,0,1,11.162,0A31.15,31.15,0,0,1,76.5,32.966,30.52,30.52,0,0,1,81.585,45.2a32,32,0,0,1,0,11.149A31.5,31.5,0,0,1,68.615,76.511,31.612,31.612,0,0,1,56.365,81.6,32.8,32.8,0,0,1,50.78,82.093Zm0-60.458a28.655,28.655,0,0,0-5.191.478A28.977,28.977,0,0,0,26.838,34.187,28.441,28.441,0,0,0,22.1,45.578a29.785,29.785,0,0,0,0,10.4A29.326,29.326,0,0,0,34.173,74.743a29.461,29.461,0,0,0,11.415,4.738,29.941,29.941,0,0,0,10.4,0,29.459,29.459,0,0,0,11.4-4.738A29.345,29.345,0,0,0,79.463,55.976a29.786,29.786,0,0,0,0-10.4A28.411,28.411,0,0,0,74.727,34.2,29.26,29.26,0,0,0,50.78,21.635Z" transform="translate(788.279 277.279)" fill="#2f99bf"/>
    <path d="M58.452,104.045a41.329,41.329,0,0,1-5.532-.354,45.021,45.021,0,0,1-22.572-9.337,44.354,44.354,0,0,1-7.8-7.82A44.88,44.88,0,0,1,13.2,63.952a43.294,43.294,0,0,1,0-11.044,44.884,44.884,0,0,1,9.358-22.553,44.366,44.366,0,0,1,7.792-7.813A45.083,45.083,0,0,1,52.937,13.2a42.93,42.93,0,0,1,11.046,0,45.045,45.045,0,0,1,22.57,9.335,44.355,44.355,0,0,1,7.8,7.82,44.878,44.878,0,0,1,9.356,22.562,41.248,41.248,0,0,1,.352,5.515,41.735,41.735,0,0,1-.352,5.532,44.878,44.878,0,0,1-9.362,22.572,44.365,44.365,0,0,1-7.792,7.813A45.053,45.053,0,0,1,63.966,103.7,41.657,41.657,0,0,1,58.452,104.045Zm0-89.037a39.061,39.061,0,0,0-5.245.335,42.944,42.944,0,0,0-21.528,8.9,42.228,42.228,0,0,0-7.422,7.441,42.748,42.748,0,0,0-8.918,21.5,41.147,41.147,0,0,0,0,10.507A42.772,42.772,0,0,0,24.25,85.209a42.074,42.074,0,0,0,7.426,7.447,42.882,42.882,0,0,0,21.514,8.9,41.02,41.02,0,0,0,10.507,0,42.9,42.9,0,0,0,21.526-8.9,42.085,42.085,0,0,0,7.422-7.441,42.737,42.737,0,0,0,8.92-21.516,41.4,41.4,0,0,0,0-10.507,42.764,42.764,0,0,0-8.918-21.505,42.217,42.217,0,0,0-7.426-7.447,42.906,42.906,0,0,0-21.512-8.9A38.837,38.837,0,0,0,58.452,15.008Z" transform="translate(780.608 269.616)" fill="#2f99bf"/>
    <path d="M41.776,56.275a14.09,14.09,0,0,1-5.271-1.006,1.8,1.8,0,0,1-.366-.131,14.664,14.664,0,0,1-7.657-7.548l-.219-.558A14.375,14.375,0,0,1,28.276,36.5a2.014,2.014,0,0,1,.131-.366,14.664,14.664,0,0,1,7.548-7.657l.547-.215a14.53,14.53,0,0,1,10.566.008l.478.185a14.587,14.587,0,0,1,7.525,7.493,1.148,1.148,0,0,1,.086.328.985.985,0,0,1,.12.223,14.4,14.4,0,0,1,0,10.564l-.185.476A14.587,14.587,0,0,1,47.6,55.063a4.888,4.888,0,0,1-.7.253A13.7,13.7,0,0,1,41.776,56.275Zm0-26.856a12.064,12.064,0,0,0-4.494.848l-.514.2a12.37,12.37,0,0,0-6.312,6.344c-.013.051-.162.438-.181.484a12.238,12.238,0,0,0,0,8.965l.2.514a12.37,12.37,0,0,0,6.344,6.312c.051.013.438.162.484.181a12.234,12.234,0,0,0,8.941,0l.335-.12c.013-.006.192-.078.2-.082A12.37,12.37,0,0,0,53.1,46.724l.173-.442a12.26,12.26,0,0,0,.008-8.983A1.062,1.062,0,0,1,53.2,37a1.168,1.168,0,0,1-.107-.189,12.394,12.394,0,0,0-6.365-6.365l-.444-.173A12.054,12.054,0,0,0,41.776,29.42Z" transform="translate(797.275 286.276)" fill="#2f99bf"/>
  </g>
</svg>
