<svg xmlns="http://www.w3.org/2000/svg" width="200" height="160" viewBox="0 0 200 160">
  <g id="compass" transform="translate(-460 -248)">
    <rect id="Rectángulo_1" data-name="Rectángulo 1" width="200" height="160" transform="translate(460 248)" fill="none"/>
    <path id="Trazado_12" data-name="Trazado 12" d="M281.807,202.994a1.08,1.08,0,0,0-.177.015l-10.638,1.52a1.082,1.082,0,1,0,.306,2.141l9.236-1.32-1.317,9.239a1.094,1.094,0,0,0-.011.155,1.082,1.082,0,0,0,2.152.151l1.517-10.641a1.073,1.073,0,0,0,.014-.176h0v0a1.082,1.082,0,0,0-.72-1.017A1.089,1.089,0,0,0,281.807,202.994ZM230,224.332A1.082,1.082,0,0,0,229,225.84l5.3,12.35a1.082,1.082,0,0,0,1.146.644l6.172-.878a1.082,1.082,0,0,0,.918-.917l.885-6.178a1.082,1.082,0,0,0-.645-1.148l-12.356-5.294A1.08,1.08,0,0,0,230,224.332Zm5.966,12.244-3.905-9.1,9.107,3.9-.652,4.554Zm24.514-12.244a1.079,1.079,0,0,0-.426.088l-12.356,5.3a1.082,1.082,0,0,0-.645,1.148l.885,6.172a1.082,1.082,0,0,0,.918.917l6.178.882a1.082,1.082,0,0,0,1.147-.645l5.293-12.35a1.082,1.082,0,0,0-.994-1.508Zm-11.167,7.045,9.108-3.9-3.9,9.1-4.555-.65Zm-14.014,11.086a1.082,1.082,0,0,0-.994.656l-5.293,12.35a1.082,1.082,0,0,0,1.42,1.42l12.344-5.29a1.082,1.082,0,0,0,.645-1.146l-.879-6.181a1.082,1.082,0,0,0-.918-.919l-6.172-.879A1.084,1.084,0,0,0,235.294,242.463Zm-3.233,11.372,3.9-9.1,4.548.648.648,4.557Zm23.122-11.372a1.084,1.084,0,0,0-.153.011l-6.178.879a1.082,1.082,0,0,0-.918.917l-.885,6.178a1.082,1.082,0,0,0,.645,1.148l12.356,5.293a1.082,1.082,0,0,0,1.42-1.42l-5.293-12.35A1.082,1.082,0,0,0,255.184,242.463Zm-5.223,2.917,4.554-.648,3.9,9.1-9.109-3.9ZM223.9,260.9a1.081,1.081,0,0,0-.154.011l-10.669,1.53a1.081,1.081,0,0,0-.611.306l-9.142,9.142a1.082,1.082,0,0,0,.917,1.836l9.241-1.317-1.322,9.235a1.082,1.082,0,0,0,1.835.918l9.148-9.142a1.082,1.082,0,0,0,.306-.612l1.521-10.672A1.082,1.082,0,0,0,223.9,260.9Zm-10.159,3.631,8.884-1.274-1.267,8.887-6.6,6.593,1.067-7.451a1.082,1.082,0,0,0-1.223-1.224l-7.458,1.063Z" transform="translate(314.816 87.398)" fill="#2f99bf"/>
    <path id="Trazado_13" data-name="Trazado 13" d="M228.5,167.287a1.078,1.078,0,0,0-.765.317l-21.332,21.338a1.082,1.082,0,0,0,1.53,1.529l21.332-21.338a1.082,1.082,0,0,0-.765-1.846Zm-51.812,51.819a1.078,1.078,0,0,0-.765.317l-15.237,15.243a1.082,1.082,0,0,0,1.53,1.529l15.237-15.243a1.082,1.082,0,0,0-.765-1.846Z" transform="translate(368.121 123.106)" fill="#2f99bf"/>
    <path id="Trazado_11" data-name="Trazado 11" d="M139.925,69.861a1.082,1.082,0,0,1,1.082,1.082v8.619a1.082,1.082,0,1,1-2.163,0V70.943A1.082,1.082,0,0,1,139.925,69.861Zm-13.454,1.326a1.082,1.082,0,0,1,1.06.871l1.681,8.453a1.082,1.082,0,0,1-2.122.422l-1.681-8.453a1.083,1.083,0,0,1,1.062-1.293Zm26.908,0a1.081,1.081,0,0,1,1.062,1.294l-1.687,8.452a1.082,1.082,0,1,1-2.121-.423l1.687-8.452A1.082,1.082,0,0,1,153.379,71.187Zm12.94,3.925a1.081,1.081,0,0,1,1,1.5l-3.3,7.965a1.082,1.082,0,1,1-2-.829l3.3-7.965A1.082,1.082,0,0,1,166.318,75.112Zm-52.787,0a1.082,1.082,0,0,1,1,.668l3.3,7.964a1.082,1.082,0,0,1-2,.827l-3.3-7.964a1.082,1.082,0,0,1,1-1.5Zm-11.923,6.376a1.081,1.081,0,0,1,.9.481l4.788,7.163a1.082,1.082,0,0,1-1.8,1.2l-4.788-7.163a1.082,1.082,0,0,1,.9-1.683Zm76.632,0a1.082,1.082,0,0,1,.9,1.683l-4.788,7.163a1.082,1.082,0,1,1-1.8-1.2l4.788-7.163A1.081,1.081,0,0,1,178.241,81.487ZM136.692,87.1a1.084,1.084,0,0,1,.979.62l4.4,8.81V88.184a1.082,1.082,0,0,1,2.163,0v12.937a1.082,1.082,0,0,1-2.049.483l-4.408-8.831v8.348a1.082,1.082,0,0,1-2.163,0V88.207c0-.008,0-.016,0-.024a1.082,1.082,0,0,1,1.081-1.081ZM91.155,90.064a1.078,1.078,0,0,1,.765.317l6.095,6.095a1.082,1.082,0,0,1-1.53,1.53L90.39,91.91a1.082,1.082,0,0,1,.765-1.846Zm97.534,0a1.082,1.082,0,0,1,.765,1.846l-6.095,6.095a1.082,1.082,0,0,1-1.53-1.53l6.095-6.095A1.078,1.078,0,0,1,188.689,90.064ZM82.578,100.513a1.076,1.076,0,0,1,.6.182l7.17,4.79a1.082,1.082,0,0,1-1.2,1.8l-7.17-4.79a1.082,1.082,0,0,1,.6-1.981Zm114.688,0a1.082,1.082,0,0,1,.6,1.981l-7.17,4.79a1.082,1.082,0,1,1-1.2-1.8l7.17-4.79A1.077,1.077,0,0,1,197.266,100.513Zm-57.341,8.146h0a1.082,1.082,0,0,1,1.071.929l3.651,25.6,25.6,3.66a1.082,1.082,0,0,1,0,2.141l-25.6,3.653L141,170.241a1.082,1.082,0,0,1-2.141,0l-3.658-25.6-25.6-3.653a1.082,1.082,0,0,1,0-2.141l25.6-3.66,3.658-25.6A1.082,1.082,0,0,1,139.925,108.659Zm22.521,31.256-18.909-2.7a1.082,1.082,0,0,1-.918-.918l-2.7-18.9-2.7,18.9a1.082,1.082,0,0,1-.918.918l-18.908,2.7,18.908,2.7a1.082,1.082,0,0,1,.918.918l2.7,18.9,2.7-18.9a1.082,1.082,0,0,1,.918-.918Zm41.194-27.479a1.082,1.082,0,0,1,.415,2.081l-7.966,3.3a1.082,1.082,0,1,1-.829-2l7.966-3.3A1.079,1.079,0,0,1,203.64,112.435Zm-127.437,0a1.078,1.078,0,0,1,.413.083l7.966,3.3a1.082,1.082,0,0,1-.828,2l-7.966-3.3a1.082,1.082,0,0,1,.414-2.081Zm-3.922,12.937a1.086,1.086,0,0,1,.212.021l8.453,1.681a1.082,1.082,0,1,1-.422,2.122l-8.453-1.681a1.082,1.082,0,0,1,.21-2.143Zm135.287,0a1.082,1.082,0,0,1,.21,2.143l-8.453,1.681a1.082,1.082,0,1,1-.422-2.122l8.453-1.681A1.088,1.088,0,0,1,207.568,125.376Zm-7.3,13.454h8.619a1.082,1.082,0,1,1,0,2.163h-8.619a1.082,1.082,0,0,1,0-2.163Zm-129.315,0h8.619a1.082,1.082,0,1,1,0,2.163H70.958a1.082,1.082,0,1,1,0-2.163Zm9.779,11.772a1.082,1.082,0,0,1,.21,2.143l-8.453,1.684a1.082,1.082,0,1,1-.423-2.122l8.453-1.684A1.088,1.088,0,0,1,80.736,150.606Zm118.377,0a1.087,1.087,0,0,1,.212.021l8.453,1.684a1.082,1.082,0,0,1-.423,2.122l-8.453-1.684a1.082,1.082,0,0,1,.21-2.143ZM84.168,161.925a1.082,1.082,0,0,1,.415,2.081l-7.966,3.3a1.082,1.082,0,1,1-.829-2l7.966-3.3A1.079,1.079,0,0,1,84.168,161.925Zm111.513.006a1.078,1.078,0,0,1,.413.083l7.96,3.3a1.082,1.082,0,0,1-.828,2l-7.96-3.3a1.082,1.082,0,0,1,.414-2.081ZM89.746,172.363a1.082,1.082,0,0,1,.6,1.981l-7.17,4.788a1.082,1.082,0,1,1-1.2-1.8l7.17-4.788A1.077,1.077,0,0,1,89.746,172.363Zm100.358,0a1.077,1.077,0,0,1,.6.182l7.164,4.788a1.082,1.082,0,1,1-1.2,1.8l-7.164-4.788a1.082,1.082,0,0,1,.6-1.981Zm-50.179,5.269a4.315,4.315,0,0,1,4.307,4.313,1.082,1.082,0,0,1-2.163,0,2.147,2.147,0,1,0-2.144,2.147,4.318,4.318,0,1,1-4.313,4.322,1.082,1.082,0,1,1,2.163,0,2.147,2.147,0,1,0,2.15-2.159,4.312,4.312,0,1,1,0-8.623Zm-42.676,3.879a1.082,1.082,0,0,1,.765,1.846l-6.095,6.095a1.082,1.082,0,1,1-1.53-1.53l6.095-6.095A1.078,1.078,0,0,1,97.249,181.511Zm85.345,0a1.078,1.078,0,0,1,.765.317l6.095,6.095a1.082,1.082,0,1,1-1.53,1.53l-6.095-6.095a1.082,1.082,0,0,1,.765-1.846Zm-9.143,7.5a1.08,1.08,0,0,1,.9.481l4.788,7.167a1.082,1.082,0,1,1-1.8,1.2l-4.788-7.167a1.082,1.082,0,0,1,.9-1.683Zm-67.053,0a1.082,1.082,0,0,1,.9,1.682l-4.788,7.173a1.082,1.082,0,1,1-1.8-1.2l4.788-7.173A1.081,1.081,0,0,1,106.4,189.011Zm10.431,5.577a1.081,1.081,0,0,1,1,1.5l-3.3,7.969a1.082,1.082,0,1,1-2-.827l3.3-7.969A1.082,1.082,0,0,1,116.829,194.588Zm46.185,0a1.082,1.082,0,0,1,1,.668l3.3,7.963a1.082,1.082,0,0,1-2,.827l-3.3-7.963a1.082,1.082,0,0,1,1-1.5Zm-11.321,3.437a1.082,1.082,0,0,1,1.06.871l1.681,8.453a1.082,1.082,0,1,1-2.122.422l-1.681-8.453a1.083,1.083,0,0,1,1.062-1.293Zm-23.544,0a1.081,1.081,0,0,1,1.062,1.293l-1.681,8.453a1.082,1.082,0,1,1-2.122-.422l1.681-8.453A1.082,1.082,0,0,1,128.15,198.025Zm11.775,1.159a1.082,1.082,0,0,1,1.082,1.082v8.619a1.082,1.082,0,1,1-2.163,0v-8.619A1.082,1.082,0,0,1,139.925,199.183Z" transform="translate(420.124 188.139)" fill="#2f99bf"/>
    <path id="Elipse_1" data-name="Elipse 1" d="M61,2A58.715,58.715,0,0,0,28.014,12.075,59.178,59.178,0,0,0,6.636,38.035a58.92,58.92,0,0,0,5.439,55.951,59.178,59.178,0,0,0,25.96,21.378,58.92,58.92,0,0,0,55.951-5.439,59.178,59.178,0,0,0,21.378-25.96,58.92,58.92,0,0,0-5.439-55.951A59.178,59.178,0,0,0,83.965,6.636,58.629,58.629,0,0,0,61,2m0-2A61,61,0,1,1,0,61,61,61,0,0,1,61,0Z" transform="translate(499 267)" fill="#2f99bf"/>
  </g>
</svg>
