<svg xmlns="http://www.w3.org/2000/svg" width="200" height="160" viewBox="0 0 200 160">
  <g id="sailboat" transform="translate(-1006 -248)">
    <rect id="Rectángulo_3" data-name="Rectángulo 3" width="200" height="160" transform="translate(1006 248)" fill="none"/>
    <path id="Trazado_14" data-name="Trazado 14" d="M2.611,61.655l12.8,28.265a1.223,1.223,0,0,0,1.113.719h4.814l2.753,7.69a6.105,6.105,0,0,0-6.1,6.1v7.409a1.223,1.223,0,0,0,2.445,0v-7.409a3.659,3.659,0,0,1,3.653-3.655,2.364,2.364,0,0,0,2.362-2.36,2.588,2.588,0,0,0-.13-.765l-2.411-7.01h4.052l7.357,21.377a1.223,1.223,0,1,0,2.311-.8L30.546,90.639h2.306l7.956,23.1a1.223,1.223,0,0,0,2.311-.8l-8.24-23.925a1.223,1.223,0,0,0-1.154-.824H17.311L5.618,62.373H49.293l8.568,21.36a1.223,1.223,0,0,0,1.132.768H93.224A14.881,14.881,0,0,0,107.64,73.526l27.175-10.181L131.685,78.4a44.674,44.674,0,0,1-26.363,32.053,1.22,1.22,0,0,0-.844,1.166,1.255,1.255,0,0,0,1.7,1.125,47.12,47.12,0,0,0,27.9-33.848l3.448-16.568,18.226-6.836c.227-.245,1.1-.435.719-1.538-.132-.245-.064-.3-.445-.577-1.188-.866-12.475-5.934-27.627-21.424a7.66,7.66,0,0,0-2.748-4.225,1.225,1.225,0,0,0-.748-.257h-.7c-.452-.5-.856-.963-1.205-1.367a1.214,1.214,0,0,0-.09-2.426h-1.3v-2.9a1.223,1.223,0,1,0-2.445,0V23.3C98.823,17.843,79.629,6.911,79.434,6.8c-.02-.01-.042-.007-.059-.017a1.2,1.2,0,0,0-.408-.115c-.037,0-.073-.022-.108-.024l-.034,0a1.208,1.208,0,0,0-.5.11l-.02,0c-21.167,9.832-36.975,12.079-41.4,12.543V17.638a1.223,1.223,0,0,0-2.445,0v1.768h-1.3a1.223,1.223,0,1,0,0,2.445h1.3v1.254H28.749A1.22,1.22,0,0,0,28,25.294a5.186,5.186,0,0,1,0,8.2,1.223,1.223,0,0,0,.748,2.191h5.714v3.325H24.641a1.223,1.223,0,0,0-.751,2.188,8.987,8.987,0,0,1,0,14.2,1.22,1.22,0,0,0,.751,2.188h9.822v2.338H3.723a1.22,1.22,0,0,0-1.113,1.726Zm103.569,9.81a1.218,1.218,0,0,0-.76.87,12.453,12.453,0,0,1-12.2,9.722H80.045V72.337H91.077a1.232,1.232,0,0,0,.748-.254,18.86,18.86,0,0,0,0-29.811,1.232,1.232,0,0,0-.748-.254H80.047v-4h6.66a1.232,1.232,0,0,0,.751-.257,12.569,12.569,0,0,0,0-19.866,1.225,1.225,0,0,0-.751-.257h-6.66V9.924c5.1,2.756,20.307,10.585,36.647,15.238a1.207,1.207,0,0,0,1.171.958h1.293v1.347h-5.812a1.223,1.223,0,0,0-.751,2.191,5.277,5.277,0,0,1,0,8.345,1.223,1.223,0,0,0,.751,2.191h5.812v4.064h-9.216a1.223,1.223,0,0,0-.751,2.191,8.422,8.422,0,0,1,0,13.314,1.223,1.223,0,0,0,.748,2.191h9.216V66.6L106.18,71.462Zm-15.531-27a16.411,16.411,0,0,1,0,25.429H62.873a18.872,18.872,0,0,0,0-25.429H90.649Zm-4.372-24.38a10.125,10.125,0,0,1,0,15.49H69.5a12.592,12.592,0,0,0,0-15.49ZM126.12,33.115a5.347,5.347,0,0,1,.073.716,5.259,5.259,0,0,1-1.736,3.919h-8.433a7.768,7.768,0,0,0,0-7.834h7.083c.863.949,1.873,2.025,3.007,3.2Zm-13.3,26.395a10.9,10.9,0,0,0,0-12.8h13.825a8.43,8.43,0,0,1,0,12.8Zm39.611-5.384L121.6,65.684V61.955h5.482a1.232,1.232,0,0,0,.751-.257,10.88,10.88,0,0,0,0-17.184,1.232,1.232,0,0,0-.751-.254H121.6V40.194h3.3a1.232,1.232,0,0,0,.748-.257,7.67,7.67,0,0,0,2.807-4.467,121.319,121.319,0,0,0,23.977,18.654ZM31.419,25.548h8.274a5.191,5.191,0,0,1,0,7.69H31.419a7.66,7.66,0,0,0,0-7.69Zm-3.875,15.9h14.8a8.988,8.988,0,0,1,0,13.692h-14.8A11.458,11.458,0,0,0,27.544,41.451Zm9.365,16.138h5.868a1.22,1.22,0,0,0,.748-.259,11.434,11.434,0,0,0,0-18.069,1.232,1.232,0,0,0-.748-.254H36.908V35.68h3.228a1.23,1.23,0,0,0,.751-.254,7.638,7.638,0,0,0,0-12.067,1.223,1.223,0,0,0-.748-.257H36.906V21.848h1.3a1.213,1.213,0,0,0,.834-.337C45.1,20.716,59.125,18.088,77.6,9.745v7.89H66.548a1.22,1.22,0,0,0-.751,2.188,10.12,10.12,0,0,1,0,16,1.223,1.223,0,0,0,.748,2.191H77.6v4H59.743a1.223,1.223,0,0,0-.751,2.188,16.409,16.409,0,0,1,0,25.942,1.223,1.223,0,0,0,.751,2.188H77.6v9.719H59.817L51.249,60.691a1.223,1.223,0,0,0-1.132-.765H36.906V57.588Z" transform="translate(1026.724 254.365)" fill="#2f99bf"/>
    <path id="Trazado_15" data-name="Trazado 15" d="M123.788,42.752a37.18,37.18,0,0,1-6.937,11.785,1.223,1.223,0,1,0,1.844,1.606,39.579,39.579,0,0,0,7.389-12.56,1.222,1.222,0,0,0-2.3-.831Zm2.386-3.643a1.22,1.22,0,0,0,1.443-.949l.594-2.844a1.223,1.223,0,1,0-2.391-.5l-.594,2.844a1.223,1.223,0,0,0,.949,1.445ZM62.541,48.938a3.672,3.672,0,0,0-3.668,3.668v5.81a3.672,3.672,0,0,0,3.668,3.668h5.807a3.672,3.672,0,0,0,3.668-3.668V52.608a3.671,3.671,0,0,0-3.668-3.668H62.541Zm7.03,3.668v5.81a1.226,1.226,0,0,1-1.223,1.223H62.541a1.225,1.225,0,0,1-1.223-1.223V52.608a1.223,1.223,0,0,1,1.223-1.223h5.807a1.225,1.225,0,0,1,1.223,1.223Zm9.883-3.668a3.672,3.672,0,0,0-3.668,3.668v5.81a3.672,3.672,0,0,0,3.668,3.668h5.807a3.672,3.672,0,0,0,3.668-3.668V52.608a3.671,3.671,0,0,0-3.668-3.668H79.453Zm7.03,3.668v5.81a1.226,1.226,0,0,1-1.223,1.223H79.453a1.225,1.225,0,0,1-1.223-1.223V52.608a1.223,1.223,0,0,1,1.223-1.223h5.807a1.225,1.225,0,0,1,1.223,1.223Zm19.355,0a3.672,3.672,0,0,0-3.668-3.668H96.364A3.672,3.672,0,0,0,92.7,52.606v5.81a3.672,3.672,0,0,0,3.668,3.668h5.807a3.672,3.672,0,0,0,3.668-3.668V52.608Zm-2.445,5.81a1.226,1.226,0,0,1-1.223,1.223H96.364a1.225,1.225,0,0,1-1.223-1.223V52.608a1.223,1.223,0,0,1,1.223-1.223h5.807a1.225,1.225,0,0,1,1.223,1.223ZM157.261,78.48a8.679,8.679,0,0,0-4.883,1.381,6.789,6.789,0,0,1-7.36,0c-8.643-4.932-9.966,4.1-17.128,0-8.24-4.712-10.243,3.944-17.106,0-8.433-4.839-10.1,4.017-17.111,0-8.26-4.712-10.24,3.941-17.116,0-8.291-4.731-10.3,3.907-17.116,0-8.409-4.8-10.027,3.981-17.116,0a8.7,8.7,0,0,0-4.885-1.377l-.269.012a8.657,8.657,0,0,0-4.616,1.374c-5.541,3.154-7.02-1.386-12.218-1.386-4.572,0-4.8,2.445-8.558,2.445a6.324,6.324,0,0,1-3.668-1.064,8.7,8.7,0,0,0-4.89-1.381,1.223,1.223,0,1,0,0,2.445A6.326,6.326,0,0,1,6.9,81.986a9.2,9.2,0,0,0,9.771,0,7.034,7.034,0,0,1,5.411-.868c2.157.55,2.976,2.249,6.8,2.249,4.409,0,4.8-2.347,8.558-2.445a6.357,6.357,0,0,1,3.675,1.059c.34.191.675.381,1.032.553A8.307,8.307,0,0,0,46,83.37a8.679,8.679,0,0,0,4.885-1.384,6.342,6.342,0,0,1,3.673-1.061c3.8,0,3.961,2.445,8.558,2.445,5.264,0,6.7-4.555,12.23-1.384a9.2,9.2,0,0,0,9.771,0c6.912-3.961,8.8,4.746,17.116,0,6.969-3.993,8.749,4.78,17.116,0,5.565-3.169,6.986,1.384,12.216,1.384,5.14,0,6.726-4.545,12.243-1.384a9.219,9.219,0,0,0,9.783,0,6.348,6.348,0,0,1,3.673-1.061,1.223,1.223,0,1,0,0-2.445Zm0,8.866a8.679,8.679,0,0,0-4.883,1.381c-6.854,3.91-8.937-4.685-17.14,0-6.878,3.915-8.871-4.714-17.1,0-6.973,3.978-8.753-4.77-17.116,0-6.929,3.971-8.785-4.753-17.116,0-6.929,3.971-8.785-4.753-17.116,0-5.545,3.179-7.059-1.381-12.233-1.381-4.533,0-4.861,2.445-8.558,2.445a6.28,6.28,0,0,1-3.675-1.069,8.832,8.832,0,0,0-5.152-1.367c-4.254.1-4.665,2.435-8.289,2.435-3.159,0-3.438-1.472-6.2-2.176-6.861-1.768-8.3,4.712-14.578,1.113a8.681,8.681,0,0,0-4.885-1.381,1.223,1.223,0,1,0,0,2.445A6.324,6.324,0,0,1,6.9,90.852a9.2,9.2,0,0,0,9.771,0c7.472-4.267,8.22,5.052,17.1,0a6.819,6.819,0,0,1,7.352-.01A8.624,8.624,0,0,0,46,92.236c5.264,0,6.7-4.555,12.23-1.384,8.277,4.721,10.238-3.941,17.116,0,8.269,4.719,10.255-3.932,17.116,0,8.277,4.721,10.333-3.9,17.106,0,8.216,4.714,10.252-3.919,17.108,0,8.509,4.873,10.093-4.032,17.13,0a9.219,9.219,0,0,0,9.783,0,6.348,6.348,0,0,1,3.673-1.061,1.223,1.223,0,1,0,0-2.445Zm0,8.866a8.679,8.679,0,0,0-4.883,1.381c-6.854,3.91-8.937-4.685-17.14,0-6.878,3.917-8.871-4.712-17.1,0-5.575,3.181-7.01-1.381-12.233-1.381a8.681,8.681,0,0,0-4.885,1.381c-6.927,3.971-8.783-4.753-17.116,0-6.927,3.971-8.783-4.753-17.116,0-5.543,3.179-7.057-1.381-12.23-1.381-4.533,0-4.861,2.445-8.558,2.445a6.28,6.28,0,0,1-3.675-1.069,8.832,8.832,0,0,0-5.152-1.367c-4.254.1-4.665,2.435-8.289,2.435-4.032,0-6.651-4.932-13.428-1.064a6.341,6.341,0,0,1-3.673,1.064A6.341,6.341,0,0,1,8.11,97.593a8.681,8.681,0,0,0-4.885-1.381,1.223,1.223,0,0,0,0,2.445A6.324,6.324,0,0,1,6.9,99.718a8.68,8.68,0,0,0,4.885,1.384c5.137,0,6.707-4.543,12.225-1.386a9.182,9.182,0,0,0,9.756.007,6.819,6.819,0,0,1,7.352-.01c.34.191.675.381,1.032.553A8.307,8.307,0,0,0,46,101.1c5.264,0,6.7-4.555,12.23-1.384,8.3,4.736,10.213-3.956,17.116,0a8.68,8.68,0,0,0,4.885,1.384c5.184,0,6.658-4.577,12.23-1.384a8.68,8.68,0,0,0,4.885,1.384c4.88,0,6.868-4.465,12.221-1.389,8.267,4.743,10.211-3.944,17.108,0,8.509,4.873,10.093-4.032,17.13,0a9.329,9.329,0,0,0,9.783,0,6.367,6.367,0,0,1,3.673-1.059,1.223,1.223,0,1,0,0-2.445Z" transform="translate(1026 293.604)" fill="#2f99bf"/>
  </g>
</svg>
