<svg xmlns="http://www.w3.org/2000/svg" xmlns:xlink="http://www.w3.org/1999/xlink" width="501.001" height="585.882" viewBox="0 0 501.001 585.882"><defs><filter id="a" x="0" y="0" width="501.001" height="585.882" filterUnits="userSpaceOnUse"><feOffset dy="3" input="SourceAlpha"/><feGaussianBlur stdDeviation="3" result="b"/><feFlood flood-opacity="0.161"/><feComposite operator="in" in2="b"/><feComposite in="SourceGraphic"/></filter></defs><g transform="translate(-38.999 -463)"><g transform="matrix(1, 0, 0, 1, 39, 463)" filter="url(#a)"><path d="M190.673,368.882h-.036a6.339,6.339,0,0,1-5.991-4.556l-.031-.112c-2.821-11.217-5.812-22.551-8.892-33.688-.958-3.5-2.017-7.051-3.039-10.489-1.9-6.377-3.852-12.944-5.321-19.6-.534-.77-1.065-1.517-1.583-2.228a40.211,40.211,0,0,1-8.089-2.312,30.835,30.835,0,0,1-6.416-3.542,132.924,132.924,0,0,1-5.281,12.527,58.381,58.381,0,0,1-10.383,15.184l-.027.027a21.3,21.3,0,0,1-6.825,4.657,19.084,19.084,0,0,1-7.393,1.472,24.638,24.638,0,0,1-13.925-4.705,33.186,33.186,0,0,1-8.307-8.348c-6.8,4.183-15.235,6.219-25.742,6.219-2.661,0-5.434-.128-8.476-.39-11.754-.911-22.036-4.007-30.559-9.2A52.183,52.183,0,0,1,23.484,301a50.992,50.992,0,0,1-7.84-10.962,56.069,56.069,0,0,1-5.535-15.962,67.332,67.332,0,0,1-.9-17.554,81.306,81.306,0,0,1,3.585-18.27A94.173,94.173,0,0,1,20,221.435a38.923,38.923,0,0,1-3.007-16.944,50.432,50.432,0,0,1,4.339-18.085,64.973,64.973,0,0,1,10-15.958q1.917-2.267,4-4.333a25.423,25.423,0,0,0,2.436-6.178c-.027-.48-.048-.839-.048-.839q-.431-.359-.849-.738a33.493,33.493,0,0,1-6.241-7.78,46.578,46.578,0,0,1-4.073-9.05,56.345,56.345,0,0,1-2.219-9.268,55.721,55.721,0,0,1,1.418-25.007A57.613,57.613,0,0,1,36.974,86.69c7.916-9.477,19.145-17.458,32.47-23.08A108.7,108.7,0,0,1,88.9,57.5a103.026,103.026,0,0,1,18.872-2.286,39,39,0,0,1,19.477-5.216c.93,0,1.864.033,2.8.1q.076-.3.148-.608a82.413,82.413,0,0,1-4.378-14.81,172.234,172.234,0,0,1-3.027-25.542c-.418-8.088-.464-16.836-.139-26,.282-7.972.8-14.76,1.213-19.3a55.162,55.162,0,0,1-13.547-4.6,59.633,59.633,0,0,1-14.181-9.709A59.012,59.012,0,0,1,85.276-63.824a53.532,53.532,0,0,1-6.331-16,6.418,6.418,0,0,1,1.129-5.461,6.414,6.414,0,0,1,5.038-2.541h.07l.069,0c1.066.034,2.146.051,3.212.051,3.224,0,6.486-.159,9.715-.474a56.724,56.724,0,0,1-2.326-7.954,50.4,50.4,0,0,1-1.073-7.335,16.99,16.99,0,0,1,.934-7.746,6.4,6.4,0,0,1,2.177-2.729,5.566,5.566,0,0,1,3.235-.984,8.809,8.809,0,0,1,4.1,1.15l.309.162.264.229a42.359,42.359,0,0,0,16.405,8.827,67.333,67.333,0,0,0,18.7,2.3c7.484,0,15.334-.8,22.926-1.574l.08-.008c7.7-.785,15.665-1.6,23.3-1.6a69.152,69.152,0,0,1,20.633,2.737,46.844,46.844,0,0,1,9.645,4.208,45.8,45.8,0,0,1,8.868,6.743l.115.113.1.124a36.889,36.889,0,0,1,4.447,6.739,36.959,36.959,0,0,1,2.847,7.456A36.865,36.865,0,0,1,235.04-69.5a37.035,37.035,0,0,1-.215,5.666,31.5,31.5,0,0,1,9.634,7.052,34.828,34.828,0,0,1,7.195,11.831,39.032,39.032,0,0,1-2.11,31.613c-1.964,4.789-5.312,8.241-8.55,11.581-1.522,1.57-2.965,3.058-4.235,4.645a25.026,25.026,0,0,1-.549,9.771,30.81,30.81,0,0,1-4.842,10.426,26.66,26.66,0,0,1-6.919,6.762A20.757,20.757,0,0,1,218,32.722c-.015.689-.027,1.334-.036,1.943.726.508,1.517,1.044,2.36,1.6A38.594,38.594,0,0,1,245.187,46.9l2.626.375a29.9,29.9,0,0,0,4.264.256,28.956,28.956,0,0,0,7.833-.994c.876-.208,1.786-.423,2.8-.623V38.795A11.1,11.1,0,0,1,267.051,30h-.806a6.236,6.236,0,0,1-5.666-3.652L247.78-1.918a6.19,6.19,0,0,1,.185-5.513l-.376-.831h.912a6.193,6.193,0,0,1,4.944-2.444H268.3a6.209,6.209,0,0,1,2.269-3.495,3.951,3.951,0,0,0,1.52-3.12,3.961,3.961,0,0,0-1.529-3.153,6.232,6.232,0,0,1-2.088-6.942c.015-.045.031-.089.048-.133l-1.219-1.635h2.119a6.238,6.238,0,0,1,2.824-2.069A6.219,6.219,0,0,1,274.67-36.1a6.788,6.788,0,0,1-2.09-7.221,6.31,6.31,0,0,1,.387-.9l-.507-.873h1.066a6.23,6.23,0,0,1,3.616-2.3,6.262,6.262,0,0,1,2.489-2.916,6.232,6.232,0,0,1,5.779-3.916,6.212,6.212,0,0,1,4.849,2.327,140.524,140.524,0,0,0,34.512-11V-64.1l1.209.653.936-.435L328.523-64l1.49.21c-.053-.047.156,0,.467.106l.24.043.673.33.1.054.833-.376v.84A193.086,193.086,0,0,0,365.16-48.627a6.217,6.217,0,0,1,4.946-2.451,6.232,6.232,0,0,1,6.147,5.255,6.164,6.164,0,0,1,2.579,4.283,12.715,12.715,0,0,1,3.685,5.194c12.041,12.117,21.4,17.317,24.517,19.051a19.274,19.274,0,0,1,1.659.995l1.144.834.91,1.731a8.5,8.5,0,0,1,.4,1.622l2.707,1.553L411.01-9.492a5.852,5.852,0,0,1-2.624,3.4l-.8.868-.353-.238-5.439,2.04.2.109a47.868,47.868,0,0,1,16.856,15.646,74.432,74.432,0,0,1,9.724,22.135,122.19,122.19,0,0,1,3.713,22.171c.144-.006.288-.009.431-.009a9.794,9.794,0,0,1,7.835,3.908,11.337,11.337,0,0,1,2.353,5.748,15.12,15.12,0,0,1-.53,5.737,35.459,35.459,0,0,1-3.116,7.34,10.834,10.834,0,0,1,3.424,3.211,14.416,14.416,0,0,1,2.3,5.984,17.73,17.73,0,0,1-.106,5.99,8.653,8.653,0,0,0,.044,2.02,3.878,3.878,0,0,0,.485,1.01c.249.441.559.99.918,1.739a16.3,16.3,0,0,1,1.729,9.208A31.335,31.335,0,0,1,446,116.652c-.273,1.417.271,2.828.956,4.607a23.786,23.786,0,0,1,1.231,3.862c1.078,5.269-.458,11.076-4.214,15.93l-.065.081a35.094,35.094,0,0,1-5.089,5c.439-2.161.355-1.818-.043.034l.043-.034c-1.781,8.753-4.061,19.513-6.406,30.415.009-.094.018-.187.026-.28-.522,2.52-.641,3.137-.026.28-.018.193-.035.387-.053.58l-.008.077c-.436,3.738-.725,7.569-1,11.274a178.5,178.5,0,0,1-2.032,18.383,177.249,177.249,0,0,1-2.973,25.82,79.06,79.06,0,0,1-8.081,23.2,50.785,50.785,0,0,1-6.908,9.63,44.757,44.757,0,0,1-9.292,7.7,49.036,49.036,0,0,1-11.892,5.291,65.93,65.93,0,0,1-14.625,2.5,25.434,25.434,0,0,0-13.364,5.171c-3.907,2.837-7.348,6.5-10.993,10.372-2.343,2.491-4.766,5.068-7.349,7.431l-.1.089a74.443,74.443,0,0,1-16.572,10.471,62.72,62.72,0,0,1-15.91,5.326,73.009,73.009,0,0,1-13.868,1.182c-2.4,0-4.74-.077-6.8-.143l-.161-.005c-2.126-.069-4.135-.135-6.116-.135a38.4,38.4,0,0,0-11.55,1.377,28.538,28.538,0,0,0-10.865,6.2c-5.057,5.593-9.789,10.375-14.464,14.62a130.109,130.109,0,0,1-16.688,12.989,86.286,86.286,0,0,1-18.9,9.317,66.3,66.3,0,0,1-21.15,3.612ZM235.324-61.249l-.116-.156-.056-.03ZM370.795-77.8A70.532,70.532,0,0,1,350-128a71.08,71.08,0,0,1,71-71,71.08,71.08,0,0,1,71,71,71.081,71.081,0,0,1-71,71A70.533,70.533,0,0,1,370.795-77.8Z" transform="translate(0 205)" fill="rgba(255,255,255,0.8)"/></g><path d="M184.453,357.947c-2.835-11.27-5.833-22.625-8.909-33.751-.986-3.594-2.117-7.391-3.025-10.442l-.008-.027,0-.007-.033-.112,0-.012-.005-.017a230.148,230.148,0,0,1-6.04-23.233l-.271-1.46-1.476-.163a37.43,37.43,0,0,1-10.093-2.453,23.91,23.91,0,0,1-8.205-5.41l-2.231-2.3-1.087,3.018a155.586,155.586,0,0,1-6.552,16.093,53.59,53.59,0,0,1-9.469,13.9,14.777,14.777,0,0,1-10.678,4.659,19.683,19.683,0,0,1-11.078-3.816,28.215,28.215,0,0,1-8.5-9.437l-1.111-2.021-1.844,1.384c-6.322,4.747-14.643,7.055-25.44,7.055-2.525,0-5.161-.121-8.054-.372H60.32c-10.97-.848-20.512-3.7-28.36-8.489a45.933,45.933,0,0,1-16.9-17.837,51.042,51.042,0,0,1-5.036-14.54,62.3,62.3,0,0,1-.83-16.25,76.207,76.207,0,0,1,3.367-17.143,89.492,89.492,0,0,1,7.534-17.192l.513-.9-.446-.94a33.741,33.741,0,0,1-3.172-16.026A45.47,45.47,0,0,1,20.915,183.4a60,60,0,0,1,9.231-14.727,59.156,59.156,0,0,1,12.54-11.217l3.391-2.22-3.826-1.34a20.593,20.593,0,0,1-7.026-4.242,28.568,28.568,0,0,1-5.3-6.625,47,47,0,0,1-5.651-16.538l0-.022a50.769,50.769,0,0,1,1.274-22.794A52.615,52.615,0,0,1,35.812,84.894c7.406-8.869,17.979-16.365,30.576-21.678a103.551,103.551,0,0,1,18.557-5.831,97.6,97.6,0,0,1,18.709-2.192l.539-.009.463-.28a33.962,33.962,0,0,1,25.65-3.94l4.635,1.132L132.5,48c-2.845-4.772-5.128-11.275-6.788-19.329a167.2,167.2,0,0,1-2.93-24.791A331.16,331.16,0,0,1,124.1-43.457l.193-1.913-1.9-.267a49.555,49.555,0,0,1-14.882-4.614,54.662,54.662,0,0,1-12.992-8.9,54.083,54.083,0,0,1-9.939-12.224,48.582,48.582,0,0,1-5.756-14.56l-.02-.084a1.458,1.458,0,0,1,.25-1.244,1.441,1.441,0,0,1,1.1-.571c1.118.035,2.233.053,3.316.053A105.291,105.291,0,0,0,98.094-88.8l3.722-.525L99.3-92.121c-.747-.83-2.4-4.819-3.561-10.148-1.173-5.393-1.348-9.985-.456-11.984.332-.747.616-.747.844-.747a3.748,3.748,0,0,1,1.582.481,47.374,47.374,0,0,0,8.647,5.9,49.6,49.6,0,0,0,9.464,3.792,72.215,72.215,0,0,0,20.084,2.493,233.127,233.127,0,0,0,23.434-1.6l.078-.008c7.574-.772,15.407-1.571,22.791-1.571A64.284,64.284,0,0,1,201.359-103a40.316,40.316,0,0,1,16.436,9.688,31.921,31.921,0,0,1,3.775,5.742,31.9,31.9,0,0,1,2.46,6.444,32.05,32.05,0,0,1,1.015,6.822,31.91,31.91,0,0,1-.493,6.96l-.3,1.633,1.552.594a27.892,27.892,0,0,1,16.157,16.891,34.5,34.5,0,0,1,2,13.966,32.941,32.941,0,0,1-3.892,13.675l-.059.105-.044.112c-1.588,3.964-4.491,6.957-7.564,10.127a59.157,59.157,0,0,0-5.461,6.188l-.539.737.2.89a19.271,19.271,0,0,1-.253,8.875,25.816,25.816,0,0,1-4.052,8.717,22,22,0,0,1-5.614,5.506,15.075,15.075,0,0,1-6.83,2.528l-1.75.175-.051,1.758c-.1,3.475-.152,6.389-.087,9.315l.048,2.163,2.153-.217a33.6,33.6,0,0,1,27.209,9.752l.382.384.524.139a44.955,44.955,0,0,1,5.234,1.746l-1.417-1.2a34.747,34.747,0,0,0,4.971.307,33.836,33.836,0,0,0,8.977-1.129h.006l.013,0,.005,0,.005,0a41.764,41.764,0,0,1,11.185-1.309,52.573,52.573,0,0,1,11.589,1.378l.017,0,.015,0h.005a41.211,41.211,0,0,0,8.688,1.116A36.185,36.185,0,0,0,296.1,46.47,42.241,42.241,0,0,1,306.992,45.1l.634-.013a42.664,42.664,0,0,1,11.526,1.376,36.649,36.649,0,0,0,8.551,1.072,47.025,47.025,0,0,0,9.72-1.223h.007l.009,0,.229-.046.009,0a50.587,50.587,0,0,1,10.514-1.27,47.993,47.993,0,0,1,11.349,1.477,34.946,34.946,0,0,0,8.308,1.047,38.628,38.628,0,0,0,6.606-.615c-.224-3.344-.555-6.728-.984-10.059-.5-3.869-1.14-7.763-1.91-11.577A47.041,47.041,0,0,1,350.9,42.107a1.134,1.134,0,0,1-.44.088c-.033,0-.066,0-.1,0h-.021a1.261,1.261,0,0,1-1.14-1.208,1.219,1.219,0,0,1,.729-1.122,1.227,1.227,0,0,1,.116-.044l.126-.053.066-.028.043-.018.17-.073h0q1.409-.612,2.769-1.316l.02-.01.25-.131.073-.039.05-.026.119-.064.038-.02a44.673,44.673,0,0,0,17.071-16.164c-.536-2.4-1.131-4.809-1.768-7.162a39.6,39.6,0,0,1-6.378,10.037,1.223,1.223,0,0,1-1.844-1.607,37.067,37.067,0,0,0,6.937-11.786,1.153,1.153,0,0,1,.225-.388c-1.224-4.138-2.636-8.3-4.2-12.368L358.5.591h0l-6.136,2.3a14.847,14.847,0,0,1-3.829,6.61h0a14.887,14.887,0,0,1-4.766,3.206,14.788,14.788,0,0,1-5.764,1.161h-34.29a1.222,1.222,0,0,1-1.132-.769l-8.567-21.36H250.342l6.158,13.6h0L258.385,9.5h0l3.649,8.059h16.414a1.224,1.224,0,0,1,1.155.824L285,34.068l2.838,8.24c.009.027.016.055.023.082a1.214,1.214,0,0,1-.79,1.442,1.235,1.235,0,0,1-.4.067,1.214,1.214,0,0,1-.318-.043h0l-.014,0-.012,0h0a1.222,1.222,0,0,1-.8-.743L277.575,20H275.27l7.084,20.578a1.222,1.222,0,0,1-2.035,1.25h0l-.011-.012-.007-.008-.006-.006-.012-.013h0a1.222,1.222,0,0,1-.239-.409L272.685,20h-4.051l2.411,7.01a2.584,2.584,0,0,1,.13.766,2.363,2.363,0,0,1-2.362,2.359,3.659,3.659,0,0,0-3.653,3.656V41.2a1.223,1.223,0,0,1-2.446,0V33.793a6.105,6.105,0,0,1,6.1-6.1L266.059,20h-4.814a1.223,1.223,0,0,1-1-.521l0,0h0a1.222,1.222,0,0,1-.109-.191L247.334-8.98a1.218,1.218,0,0,1-.035-.928,1.221,1.221,0,0,1,.12-.24,1.219,1.219,0,0,1,.205-.242,1.207,1.207,0,0,1,.356-.225,1.219,1.219,0,0,1,.466-.091h30.74V-23.045h-9.822a1.221,1.221,0,0,1-1.162-.824,1.221,1.221,0,0,1,.411-1.364c2.2-1.7.968-4.193,0-4.2a1.223,1.223,0,0,1-.407-1.363,1.221,1.221,0,0,1,1.157-.825h9.822V-38.95h-5.714a1.224,1.224,0,0,1-1.158-.828,1.223,1.223,0,0,1,.41-1.363,2.794,2.794,0,0,0,0-4.2,1.221,1.221,0,0,1-.412-1.363,1.22,1.22,0,0,1,1.16-.825h5.714v-1.255h-1.3a1.222,1.222,0,0,1-1.222-1.222,1.222,1.222,0,0,1,1.222-1.222h1.3V-53a1.223,1.223,0,0,1,1.223-1.222A1.222,1.222,0,0,1,281.632-53v1.653c4.426-.464,20.233-2.712,41.4-12.543l.019,0a1.211,1.211,0,0,1,.5-.11l.034,0c.034,0,.071.02.107.025a1.193,1.193,0,0,1,.409.114c.017.01.04.007.059.017.2.115,19.39,11.048,39.726,16.5v-2.518a1.222,1.222,0,0,1,1.222-1.223,1.223,1.223,0,0,1,1.223,1.223v2.9h1.3a1.213,1.213,0,0,1,1.258,1.167,1.214,1.214,0,0,1-1.167,1.258c.349.4.753.863,1.205,1.367h.7a1.218,1.218,0,0,1,.748.257,7.663,7.663,0,0,1,2.749,4.225c2.956,3.022,5.764,5.646,8.379,7.921v0a104.857,104.857,0,0,0,16.388,11.872c1.562.9,2.551,1.409,2.86,1.634a1.209,1.209,0,0,1,.3.271.722.722,0,0,1,.076.149l0,.011a1.474,1.474,0,0,0,.068.146.974.974,0,0,1-.212,1.168,2.188,2.188,0,0,1-.291.212l-.007,0a1.07,1.07,0,0,0-.208.155l-8.31,3.117h0l-7.105,2.665h0l-2.812,1.055-.01.046c.748.141,1.49.3,2.207.472A41.7,41.7,0,0,1,394.608-3.92,42.924,42.924,0,0,1,409.7,10.123a69.518,69.518,0,0,1,9.047,20.652,120.883,120.883,0,0,1,3.792,24.756l.175,3.118,2.758-1.462a4.8,4.8,0,0,1,6.094,1.367l.028.037c1.462,1.866,1.765,4.128.954,7.122a40.855,40.855,0,0,1-3.965,8.593l0,.007-.015.029-.022.04L428.2,75,426.808,77.5l2.833.441a5.693,5.693,0,0,1,3.933,2.478,11.311,11.311,0,0,1,1.359,8.341l-.029.142-.009.144a12.908,12.908,0,0,0,.146,3.61,8.121,8.121,0,0,0,1,2.366l0,.009.007.012c.2.357.478.845.782,1.483l.04.08c2.321,4.352.986,9.251-.627,13.47l-.047.122-.031.129c-.709,2.981.262,5.5,1.119,7.726l.005.014,0,.006a19.766,19.766,0,0,1,.992,3.046c.783,3.83-.4,8.146-3.249,11.84a29.956,29.956,0,0,1-9.717,7.69l-1.174.585.069,1.31c.389,7.4-.41,15.095-1.184,22.532v.011l0,.024-.013.122-.017.165v0c-.211,2.039-.429,4.147-.618,6.245-.442,3.791-.731,7.609-1.01,11.3v.012l0,.042,0,.05,0,.049,0,.024v.015l0,.022a172.633,172.633,0,0,1-1.994,17.989l-.023.127-.006.128a175.517,175.517,0,0,1-2.893,25.286A74.185,74.185,0,0,1,408.9,248.44c-7.842,14.044-20.5,21.429-38.691,22.577l-.031,0c-12.466.978-20.173,9.174-27.626,17.1l-.045.051-.03.031c-2.246,2.387-4.566,4.853-6.975,7.06a69.53,69.53,0,0,1-15.451,9.751l-.039.019a59.715,59.715,0,0,1-27.622,6.018c-2.235,0-4.442-.07-6.39-.132l-.126,0-.1,0h-.019l-.161-.005h-.028c-2.121-.07-4.126-.136-6.251-.136a45.427,45.427,0,0,0-12.976,1.584,33.469,33.469,0,0,0-12.883,7.366l-.081.073-.073.081c-4.986,5.519-9.64,10.227-14.226,14.393a125.2,125.2,0,0,1-16.04,12.49,81.35,81.35,0,0,1-17.8,8.783,61.315,61.315,0,0,1-19.533,3.345A1.342,1.342,0,0,1,184.453,357.947Zm-14.259-60.622c5.045,15.467,9.239,31.464,13.295,46.935l0,.012.006.025.076.291.088.338.023.089,0,.007.008.031c.833,3.181,1.7,6.469,2.579,9.79l.407,1.534,1.586-.048c7.133-.211,14.833-2.2,22.887-5.9a102.508,102.508,0,0,0,19.767-12.2,106.451,106.451,0,0,0,11.757-11.276l.011-.011a123.967,123.967,0,0,1,9.391-9.3,38.357,38.357,0,0,1,10.663-6.713l1.559-.625-.346-1.643c-4.381-20.824-7.4-42.346-10.31-63.158l0-.01,0-.017,0-.028c-.836-5.972-1.535-10.948-2.272-16.054l-.4-2.781-2.5,1.291a177.19,177.19,0,0,0-16.976,10.485l-.011.007-.007,0c-5.989,4.016-12.182,8.168-18.6,11.278a58.4,58.4,0,0,1-9.8,3.775,44.071,44.071,0,0,1-10.5,1.642l-2.068.068.138,2.065a16.783,16.783,0,0,1-.326,3.524c-.327,2.074-.665,4.219.022,6.147l.115.325.218.267a14.673,14.673,0,0,1,2.507,4.618,16.875,16.875,0,0,1,.866,5.292,16.023,16.023,0,0,1-.817,5.191,12.758,12.758,0,0,1-2.438,4.334l-.707.814.29,1.038c3.077,11.021,5.971,22.22,8.77,33.051l0,.005.015.059,0,.013.006.024.063.246.2.779.06.232.079.307.08.308.319,1.235.6,2.334,2.182-1.024c8-3.755,13.893-9.808,19.6-15.662l.005-.005,0-.005.007-.007.005-.006a107.834,107.834,0,0,1,11.067-10.337,44.853,44.853,0,0,1,6.371-4.154,38.259,38.259,0,0,1,7.448-3.028l.083-.026a1.523,1.523,0,0,1,.492-.092c.654,0,.949.736,1.021,1.172a1.449,1.449,0,0,1-.947,1.721c-10.283,3.118-17.465,10.48-24.411,17.6l-.019.02a110.178,110.178,0,0,1-10.85,10.167,34.608,34.608,0,0,1-12.715,6.542,1.559,1.559,0,0,1-.368.047,1.473,1.473,0,0,1-1.393-1.026c-.62-2.409-1.211-4.7-1.813-7.022l-.009-.036-.018-.07-.035-.136-.2-.76,0-.011,0-.015-.062-.24c-2.392-9.256-4.865-18.823-7.195-28.455l-.66-2.728-2.363,1.514a26.674,26.674,0,0,1-5.325,2.667,16.354,16.354,0,0,1-5.494,1.048,11.328,11.328,0,0,1-2.442-.261l-3.425-.764Zm-42.12-85.8c-9.727,2.349-20.19,4.668-31.734,4.985l-1.837.05L94.4,218.4c-.318,5.555-.814,11.182-1.293,16.623l0,.055v.013c-.8,9.157-1.636,18.625-1.651,27.952a129.553,129.553,0,0,0,.69,14.075,96.1,96.1,0,0,0,2.533,14.1l.013.053.017.053a56,56,0,0,0,3.848,9.276,34.773,34.773,0,0,0,4.805,6.987c3.623,4,7.772,6.116,12,6.118a13.424,13.424,0,0,0,5.608-1.262,18.885,18.885,0,0,0,5.243-3.7c3.367-3.28,6.35-8.095,8.866-14.312a113.218,113.218,0,0,0,4.243-10.509l.011-.031.005-.014,0-.007c.88-2.414,1.789-4.909,2.8-7.3l.375-.885-.457-.846c-2.136-3.954-3.3-8.37-4.537-13.046l0-.01c-1.524-5.772-3.1-11.741-6.657-16.881-1.88-2.822-3.059-5.08-3.125-7.614l-.11-4.273-3.21,2.822A101.823,101.823,0,0,0,106.8,256.017l-.012.018a1.26,1.26,0,0,1-1.116.655,1.842,1.842,0,0,1-1.539-.861.909.909,0,0,1,.127-1.026,118.387,118.387,0,0,1,19.354-22.065l.182-.162.139-.2c4.267-6.215,5.941-13.572,6.593-18.649l.37-2.881Zm219.587,48.208c-7.89,8.14-14.138,13.889-19.663,18.1a62.374,62.374,0,0,1-16.617,9.377c-11.312,4.132-24.013,4.624-45.056,5.44h-.012l-3.391.131.31,2.193c.6,4.272,1.175,8.575,1.7,12.787l.271,2.194,2.156-.49a43.741,43.741,0,0,1,9.941-.949c2.057,0,4.064.074,6.189.152l.047,0,.08,0h.049c2.066.075,4.2.153,6.375.153,1.037,0,2.031-.019,3.041-.057A67.895,67.895,0,0,0,341.3,286.222l.027-.031c.676-.739,1.356-1.5,1.9-2.1l.1-.106.016-.018a69.558,69.558,0,0,1,7.958-7.957l.816-.656-.075-1.045c-.308-4.313-.617-8.671-.947-13.32l-.316-4.465ZM20.083,225.5a88.57,88.57,0,0,0-5.84,16.546,66.506,66.506,0,0,0-1.9,15.422,52.184,52.184,0,0,0,1.84,13.955,44.675,44.675,0,0,0,5.366,12.1,43.338,43.338,0,0,0,8.028,9.314,47.451,47.451,0,0,0,10.642,6.975,57.165,57.165,0,0,0,12.973,4.361,72.8,72.8,0,0,0,15.047,1.507h.007a92.56,92.56,0,0,0,12.6-.9,10.619,10.619,0,0,0,7.787-3.8c2.642-3.256,3.51-8.435,2.578-15.39q-.046-.664-.09-1.329l-.005-.073-.005-.088,0-.022v-.026c-.383-5.661-.779-11.514-1.607-17.251-.283-1.96-.425-3.936-.575-6.027l0-.025,0-.029v-.013a55.147,55.147,0,0,0-1.434-10.495l-.026-.1-.036-.094c-2.471-6.474-6.993-10.7-13.823-12.919-5.821-1.894-12.674-2.13-19.3-2.36h-.02c-5.756-.2-11.708-.4-16.794-1.7a23.425,23.425,0,0,1-6.763-2.786,16.933,16.933,0,0,1-5.163-5.027l-1.979-2.965Zm220-81.221c2.659,16.826,5.157,33.9,7.574,50.4l.02.134.039.262.012.082.008.059.156,1.066.018.124.2,1.341.007.05,0,.025c.838,5.726,1.986,13.568,3.064,20.807,1.691,11.29,3.542,22.509,5.331,33.359l.007.042.019.116.005.036,0,.014.007.041.016.1,0,.018c1.935,11.745,3.937,23.89,5.7,35.872l.262,1.777,2.088-.082.059,0h.034c11.76-.461,21.05-.824,28.527-1.618,7.933-.843,13.816-2.185,19.076-4.352,11.149-4.594,20.55-13.359,37.57-29.744l.675-.65-.068-.934c-1.242-17.254-2.575-35.507-3.96-54.252L346.214,194l-3.089,3.1a122.649,122.649,0,0,1-17.2,14.729,65.909,65.909,0,0,1-15.885,8.151,74.268,74.268,0,0,1-17.011,3.574,199.317,199.317,0,0,1-20.568.8c-3.076,0-6.354-.028-8.865-.052h-.067l-.067,0-.115,0a.851.851,0,0,1-.707-.256,1.356,1.356,0,0,1-.282-.846,1.462,1.462,0,0,1,1.275-1.593c3.689.055,6.7.08,9.482.08a171.491,171.491,0,0,0,21.155-1.006,66.4,66.4,0,0,0,17.15-4.278,69.893,69.893,0,0,0,16.015-9.321A175.734,175.734,0,0,0,345.3,191.167l.652-.648-.068-.916c-1.976-26.9-4.078-54.282-6.245-81.394l-.256-3.191-2.756,1.629c-6.036,3.568-10.726,8.77-15.262,13.8l-.073.081-.005.006-.094.1-.018.02c-.788.874-1.868,2.07-2.894,3.174l-.059.068a53.1,53.1,0,0,1-10.833,9.721,54.057,54.057,0,0,1-12.24,6.079c-7.794,2.733-16.792,4.062-27.507,4.062a221.441,221.441,0,0,1-25.356-1.786l-2.619-.306Zm-61.743,72.206c-12.785,4.031-25.583,8.088-38.037,12.06-.4.126-.794.24-1.235.365l-.006,0-.039.012-.01,0-.062.018c-2.382.677-5.081,1.444-6.856,4.092a6.959,6.959,0,0,0-.918,6.268,17.673,17.673,0,0,0,2.657,4.683l0,.005.014.019,0,.005c.511.718.994,1.4,1.388,2.071l.024.041c2.51,4.079,3.616,8.823,4.786,13.846l0,.008,0,.01,0,.008c1.462,6.268,2.973,12.748,7.444,17.949,2.048,3.163,6.38,5.072,9.654,6.117a47.094,47.094,0,0,0,13.939,2.089,32.533,32.533,0,0,0,9.825-1.344c3.3-1.07,5.578-2.723,6.77-4.914a7.71,7.71,0,0,0,.814-4.9,14.186,14.186,0,0,0-2.281-5.544l-1.081-1.669-1.676,1.071a31.487,31.487,0,0,1-14.431,4.012,8.612,8.612,0,0,1-4.943-1.149.277.277,0,0,1-.02-.157.823.823,0,0,1,.3-.577c1.319-.807,3.315-.893,5.427-.984h.021a18.065,18.065,0,0,0,8.945-2.167l.016-.006a21.9,21.9,0,0,1,3.671-1.429l1.044-.258.361-1.013a17.523,17.523,0,0,0,1.21-5.7,7.444,7.444,0,0,0-2.295-5.711l-.9-.846-1.158.418c-1.742.631-3.679,1.444-5.093,2.038l-.031.013c-4.687,1.962-9.534,3.991-14.161,3.991a15.047,15.047,0,0,1-1.721-.1,1.024,1.024,0,0,1-.42-.624.325.325,0,0,1-.007-.147,45.343,45.343,0,0,1,9.627-3.564l.005,0,.012,0,.009,0a51.424,51.424,0,0,0,10.374-3.835l.68-.368.255-.73a10.239,10.239,0,0,0,.462-6.368,11.9,11.9,0,0,0-3.289-5.061l-.95-.963-1.247.523c-1.09.455-2.219.931-3.772,1.591l-.032.013-.053.023-.029.012c-4.379,1.853-8.9,3.767-13.42,5.428a1.253,1.253,0,0,1-.415.082c-.662,0-1.246-.8-1.408-1.542a1.649,1.649,0,0,1,.037-.949.918.918,0,0,1,.52-.507l.073-.036a120.609,120.609,0,0,1,12.968-5.335l.018-.006.012,0,.011,0c5.84-2.141,11.879-4.355,17.244-7.659l.1-.06.091-.072a8.547,8.547,0,0,0,2.939-3.944,6.559,6.559,0,0,0-.021-4.275,8.26,8.26,0,0,0-7.821-5.288A8.725,8.725,0,0,0,178.339,216.481ZM392.4,242.929c-5.384,3.139-11.507,4.237-17.988,5.4h-.007c-7.134,1.28-14.512,2.6-20.774,6.9l-.948.65.084,1.147c.338,4.6.66,9,1.011,13.876l.2,2.747,2.551-1.038a83.406,83.406,0,0,1,13.395-3.929l.01,0c5.735-1.315,10.687-2.451,15.021-5.693a22.731,22.731,0,0,0,5.935-6.743,44.528,44.528,0,0,0,4.451-11.054l1.3-4.728ZM185.8,212.568a10.911,10.911,0,0,1,7.522,13.415l-.186.672.272.643a8.191,8.191,0,0,1-.359,6.767,11.188,11.188,0,0,1-5.088,5.19l-1.577.765.551,1.663a10.516,10.516,0,0,1,.24,3.659c-.091,2.08-.194,4.436,1.237,6.644l.606.935,1.114-.022a46.447,46.447,0,0,0,11.314-1.65,59.828,59.828,0,0,0,10.337-3.918c6.574-3.162,12.8-7.342,18.813-11.386l.014-.009.011-.007.014-.01c6-4.028,12.2-8.195,18.6-11.229l1.344-.636-.222-1.471c-2.746-18.134-5.639-36.1-8.437-53.474l-.012-.078,0-.017-.036-.223-.011-.066c-1.1-6.826-2.467-15.32-3.791-23.648l-.508-3.2-2.633,1.891c-5.8,4.169-10.89,8.377-15.809,12.448l-.01.008c-7.776,6.432-15.12,12.507-23.527,16.865-9.278,4.807-18.914,7.046-30.328,7.046l-.68,0-2.624-.021.675,2.535c2.659,9.98,5.405,20.314,8.164,30.713l.535,2.015,1.991-.617c.784-.244,1.617-.526,2.226-.732l.005,0,.071-.024.01,0,.051-.017a24.328,24.328,0,0,1,7.6-1.736A9.487,9.487,0,0,1,185.8,212.568ZM344.27,81.871c-.645.016-1.325.049-2.077.1l-2.02.135.159,2.019c2.418,30.517,4.557,61.494,6.625,91.451l0,.018,0,.07.008.11v.019l0,.018.009.133,0,.022.017.248.007.11,0,.017v.016c1.643,23.815,3.343,48.442,5.188,72.853l.238,3.143,2.742-1.553c5.154-2.92,10.981-3.9,17.15-4.937,5.966-1,12.136-2.041,17.76-4.98a43.975,43.975,0,0,0,7.735-4.707,38.234,38.234,0,0,0,6-5.731,41.951,41.951,0,0,0,7.524-13.7c3.325-9.749,3.931-20.751,4.518-31.392v-.014c.209-3.8.425-7.723.77-11.49l.322-3.52-3.183,1.536a49.688,49.688,0,0,1-12.362,3.9c-4.324.824-8.837,1.283-13.2,1.727H388.2c-9.322.947-18.962,1.926-27.784,6.474a1.647,1.647,0,0,1-.725.189,1.837,1.837,0,0,1-1.608-1.426.962.962,0,0,1,.625-1.211l.046-.023.046-.026a42.717,42.717,0,0,1,12.784-4.506c4.61-.938,9.52-1.437,14.269-1.921h.011l.039,0h.009l.024,0a127.379,127.379,0,0,0,16.25-2.353,44.617,44.617,0,0,0,7.624-2.483,31,31,0,0,0,6.916-4.1l.725-.572.033-.924a31.337,31.337,0,0,0-.517-7.643,13.755,13.755,0,0,0-3.207-6.617l-.624-.671-.915.033c-.3.01-.571.015-.8.015a13.929,13.929,0,0,1-5.444-.967,8.326,8.326,0,0,1-3.306-2.47c-3.661-4.532-2.62-12.6-1.673-17.009l.062-.29-.024-.3a7.923,7.923,0,0,0-1.553-3.893l-.005-.008-.007-.01a10.335,10.335,0,0,1-.676-1.13l-.026-.052c-1.275-2.433-.717-5.017-.071-8.008l0-.006,0-.021a26.785,26.785,0,0,0,.788-5.467l0-.183-.032-.181c-.1-.552-.212-1.11-.32-1.633-.675-3.271-.975-5.369.552-6.913L397.378,98a46.28,46.28,0,0,1-13.383,4.22,85.261,85.261,0,0,1-14.009.941c-2.5,0-5.073-.054-7.564-.106h-.014l-.094,0c-2.376-.05-5.068-.107-7.8-.107-.5,0-.989,0-1.443.005h-.018a1.032,1.032,0,0,1-.871-.333,1.521,1.521,0,0,1-.318-.976,1.566,1.566,0,0,1,.327-1.008,1.038,1.038,0,0,1,.844-.355c5.47.377,9.923.553,14.011.553,12.813,0,22.508-1.842,30.51-5.8a43.151,43.151,0,0,0,12.465-9.286,55.714,55.714,0,0,0,9.788-15.1l.177-.392v-.429a175.916,175.916,0,0,0-3.569-35.618l-3.951.586A50.416,50.416,0,0,1,404,67.619a40.864,40.864,0,0,1-11.954,11.563,36.929,36.929,0,0,1-16.222,5.471c-1.088.1-2.223.154-3.373.154a81.562,81.562,0,0,1-13.216-1.447l-.022,0a85.659,85.659,0,0,0-13.869-1.5C344.98,81.858,344.617,81.862,344.27,81.871ZM58.6,155.441c-4.414,1.176-8.621,2.664-12.552,4.087l-.2.07-.177.11a53.806,53.806,0,0,0-20.936,24.138c-2.892,6.538-4.394,12.583-4.466,17.967a23.29,23.29,0,0,0,3.552,13.27,20.918,20.918,0,0,0,4.377,4.836,24.342,24.342,0,0,0,5.612,3.374,34.221,34.221,0,0,0,13.547,2.614h.006a46.122,46.122,0,0,0,13.357-2.035,48.2,48.2,0,0,0,12.765-6.006,42.4,42.4,0,0,0,10.508-9.885,37.964,37.964,0,0,0,6.458-13.648l.015-.061.011-.062c.265-1.466.572-2.957.9-4.537v-.005l.005-.025.009-.041.03-.142.018-.085c1.041-5.022,2.118-10.214,2.156-15.4.047-6.143-1.431-11.062-4.517-15.038l-.121-.156-.148-.129a20.794,20.794,0,0,0-7.575-4.158,28.861,28.861,0,0,0-8.477-1.179A55.163,55.163,0,0,0,58.6,155.441Zm70.248-2.611c7.344,19.141,12.514,39.22,17.514,58.639l0,.006,0,.01.192.744.087.339c.648,2.517,1.339,5.2,2.04,7.893l.533,2.048,2.015-.648,13.718-4.411,3.42-1.1-.5-1.845c-1.154-4.226-2.208-8.035-2.977-10.816l-.017-.062,0-.008-.133-.481,0-.017-.009-.031-.021-.074-.022-.083c-2.57-9.293-4.268-15.432-5.135-19.645a25,25,0,0,1-.632-4.653,2.623,2.623,0,0,1,.255-1.485c.146-.192.729-.419,2.684-.419.647,0,1.416.023,2.033.041h.046l.154,0,.276.008c.958.029,1.993.057,3.179.057a54.238,54.238,0,0,0,15.717-2.234,67.83,67.83,0,0,0,10.5-4.109,94.369,94.369,0,0,0,12.235-7.231,106.23,106.23,0,0,0,11.639-9.625l.015-.014,0,0,.005-.005c2.79-2.542,5.674-5.171,8.672-7.461a40.9,40.9,0,0,1,9.366-5.554l1.516-.617-.305-1.607a98.62,98.62,0,0,1-1.528-12.152c-.008-.226.056-.294.08-.32a.821.821,0,0,1,.566-.186.7.7,0,0,1,.727.446,90.583,90.583,0,0,1,2.4,11.7l.23,1.681,1.7.047c4.084.11,8.3.4,12.386.679l.034,0,.032,0,.032,0c5.445.373,11.075.759,16.676.759a80.43,80.43,0,0,0,16.031-1.423,50.241,50.241,0,0,0,15.408-5.719c7-3.881,12.371-9.716,17.567-15.36l0-.005.012-.012,0,0c2.794-3.036,5.684-6.175,8.746-8.895a39.73,39.73,0,0,1,9.959-6.692l1.264-.572-.095-1.385c-.365-5.314-.67-10.751-.908-16.163l-.1-2.362-2.312.495a45.55,45.55,0,0,0-16.2,7.3,141.528,141.528,0,0,0-13.709,11.151l-.009.008a129.367,129.367,0,0,1-14.452,11.614,46.9,46.9,0,0,1-7.811,4.175,35.158,35.158,0,0,1-8.6,2.355,40.293,40.293,0,0,1-5.3.331,98.721,98.721,0,0,1-13.855-1.331l-.026,0-.04-.006-.011,0h-.006c-3.3-.473-6.7-.962-10.115-1.206-1.117-.1-2.273-.151-3.436-.151a39.186,39.186,0,0,0-23.7,7.979A122.725,122.725,0,0,0,204.6,137.734l-.013.013-.033.033-.018.018c-3.231,3.226-6.569,6.562-10.064,9.488a50.581,50.581,0,0,1-11.216,7.331,54.66,54.66,0,0,1-10.208,2.909,59.578,59.578,0,0,1-10.7.962,62.426,62.426,0,0,1-15.914-2.07,59.863,59.863,0,0,1-14.717-6.035l-4.9-2.834ZM132.668,98.7a89.371,89.371,0,0,0-10.3,8.936,77.049,77.049,0,0,0-8,9.551,78.01,78.01,0,0,0-10.33,20.7c-4.774,14.334-6.046,29.831-7.394,46.239v.047l-.009.109-.007.082c-.417,5.081-.848,10.334-1.4,15.633l-.19,1.842,1.823.331a190.975,190.975,0,0,0,33.988,3.055c1.038,0,2.062-.008,3.045-.024l1.37-.022.474-1.284a14.634,14.634,0,0,1,3.574-5.457l.833-.8-.275-1.121c-2.7-10.982-6.475-21.781-10.124-32.224l-.006-.019-.009-.025-.007-.022-.017-.049-.023-.066-.005-.014,0-.008c-2.309-6.611-4.7-13.448-6.774-20.236l-.016-.05a.607.607,0,0,1,.135-.556,1.4,1.4,0,0,1,1.081-.567,1.2,1.2,0,0,1,.71.245l.05.039a61.092,61.092,0,0,0,19.4,10.188l2.857.895-.266-2.981a282.044,282.044,0,0,0-6.132-38.431c-.1-.425-.213-1.108-.335-1.831v-.008l0-.02,0-.017-.008-.049-.019-.115,0-.008a48.827,48.827,0,0,0-1.52-6.939,12,12,0,0,0-1.544-3.267,4.522,4.522,0,0,0-3.212-2.067l-.781-.085ZM114.692,53.539l-6.051,1.567,5.836,2.236a40.086,40.086,0,0,1,10.174,5.721,46.161,46.161,0,0,1,8.152,8.21,63.343,63.343,0,0,1,6.421,10.256,93.526,93.526,0,0,1,4.926,11.8,167.848,167.848,0,0,1,6.364,26.07c1.522,8.857,2.582,17.748,3.517,25.592V145l0,.037.006.054v.006l0,.023.04.33,0,.043.039.326c.3,2.553.65,5.447,1,8.143l.2,1.589,1.595.148c1.8.166,3.627.25,5.418.25a58.874,58.874,0,0,0,7.861-.529l2.1-.284-.4-2.078c-1.286-6.656-2.258-13.546-3.287-20.841l0-.033v-.008l0-.013c-1.849-13.1-3.759-26.646-7.612-39.265a92.157,92.157,0,0,0-7.539-18.151,69.13,69.13,0,0,0-5.347-8.2,61.984,61.984,0,0,0-6.639-7.405l-.582-.548h-.126a30.844,30.844,0,0,0-26.067-5.054ZM165.38,100.48c2.348,9.917,4.055,18.126,5.37,25.835a227.742,227.742,0,0,1,3.045,26.127l.135,2.506,2.412-.69c11.391-3.262,19.971-11.678,28.268-19.818,5.035-4.941,10.24-10.05,15.917-13.765a38.364,38.364,0,0,1,8.852-4.393,31.408,31.408,0,0,1,10.13-1.657l2.108,0-.113-2.105a120.265,120.265,0,0,0-2.4-18.923A76.93,76.93,0,0,0,232.9,75.431l-.374-.747-1.291-.423c-2.04-.667-4.351-1.422-6.647-2.391l-2.73-1.153-.048,2.963a77.777,77.777,0,0,1-2.193,17.729,51.139,51.139,0,0,1-7.014,16.1l-.01.014-.193.292-.183.277c-2.372,3.6-4.826,7.329-8.354,7.329a6.006,6.006,0,0,1-1.184-.123l-.154-.031a79.29,79.29,0,0,1-17.917-5.944,58.6,58.6,0,0,1-15.884-10.733l-4.925-4.8ZM36.554,145.03l-.23.31A17.372,17.372,0,0,0,49.4,151.106a21.21,21.21,0,0,0,8.5-1.858,23.982,23.982,0,0,0,7.331-5.093l.023-.024a38.421,38.421,0,0,0,7.874-13.8,47.845,47.845,0,0,0,2.052-8.415,40.425,40.425,0,0,0,.393-8.58c-.481-7.283-3.152-13.089-7.724-16.789l-.066-.053-.069-.047a9.341,9.341,0,0,0-5.295-1.74,10.569,10.569,0,0,0-6.945,2.939,25.366,25.366,0,0,0-5.048,6.38,38.927,38.927,0,0,0-5,14.056,32.169,32.169,0,0,0-.343,4.645c.021,2.714.535,4.614,1.571,5.807a3.857,3.857,0,0,0,2.991,1.363,5.2,5.2,0,0,0,1.63-.281l.043-.014c1.78-.636,3.349-2.117,4.8-4.525a38.686,38.686,0,0,0,2.495-5.258l.01-.023.007-.019.03-.074,0-.005c.22-.535.427-1.041.581-1.361l.086-.179.049-.192a1.041,1.041,0,0,1,1.105-.892,1.779,1.779,0,0,1,1.354.616,1.133,1.133,0,0,1,.161,1.07l-.025.1-.014.1a19.825,19.825,0,0,1-5.125,11.075,10.983,10.983,0,0,1-7.582,3.627,6.666,6.666,0,0,1-5.131-2.321,10.9,10.9,0,0,1-2.314-4.937,24.883,24.883,0,0,1-.18-8.389l.01-.089A36.9,36.9,0,0,1,49.027,99.4a26.824,26.824,0,0,1,6.726-6.378,13.6,13.6,0,0,1,7.275-2.346,11.23,11.23,0,0,1,6.2,1.943A22.37,22.37,0,0,1,75.59,99.5l3.151,4.956L79.27,98.6c.58-6.408-1-11.857-4.563-15.76A17.647,17.647,0,0,0,68,78.311,22.193,22.193,0,0,0,59.9,76.849a27.338,27.338,0,0,0-20.718,9.723,47.548,47.548,0,0,0-8.1,13.409,51.407,51.407,0,0,0-3.6,15.488A45.747,45.747,0,0,0,28.975,131.2a37.849,37.849,0,0,0,7.291,14.071l.288-.239ZM79.24,120.581a50.961,50.961,0,0,1-3.4,13.436,42.757,42.757,0,0,1-6.869,11.575l-3.9,4.609,5.883-1.368a72.222,72.222,0,0,0,13.455-4.36,37.015,37.015,0,0,0,9.006-5.63c4.815-4.149,7.618-9.024,10.862-14.669l.005-.009,0-.006,0-.006.005-.01A108.075,108.075,0,0,1,115.7,107.212a38.206,38.206,0,0,0,7.916-10.734,24.4,24.4,0,0,0,2.516-11.641,22.409,22.409,0,0,0-2.9-9.975,31.69,31.69,0,0,0-7.828-9.022l-.086-.07-.093-.059a31.465,31.465,0,0,0-9.054-3.976,37.467,37.467,0,0,0-9.516-1.174,64.086,64.086,0,0,0-18.59,3.163c-6.02,1.83-11.884,4.209-17.058,6.308l-.01,0-.01,0-.113.046.606,3.848A26.649,26.649,0,0,1,71.8,76.6a17.606,17.606,0,0,1,6.343,5.486C81.133,86.3,82.606,92.2,82.526,99.615A81.959,81.959,0,0,1,79.69,118.8h-.256Zm345.079-1.89c.032.053.118.2-.03.515a25.967,25.967,0,0,1-7.178,6.74,31.24,31.24,0,0,1-9.574,4.046l-.692.164-.434.564a6.246,6.246,0,0,0-1.256,3.29,6.776,6.776,0,0,0,.547,3.294,5.662,5.662,0,0,0,4.511,3.455,11.055,11.055,0,0,0,2.413.249,20.585,20.585,0,0,0,6.562-1.238,35.128,35.128,0,0,0,6.612-3.113c4.711-2.845,8.089-6.317,9.268-9.526l.051-.141.031-.148a14.989,14.989,0,0,0-.988-9.351,12.668,12.668,0,0,1-1.064-4.385,17.463,17.463,0,0,1,1.761-7.141l.108-.248.037-.267a13.983,13.983,0,0,0-1.579-9.014,13.874,13.874,0,0,1-1.393-3.951,18.018,18.018,0,0,1,.458-6.713l.193-.862-.508-.724c-1.585-2.255-3.413-3.4-5.434-3.4a6.2,6.2,0,0,0-3.549,1.219c-6.507,2.871-12.014,6.842-17.55,11l-.26.2-.185.267a13.124,13.124,0,0,0-2.488,6.789,11.786,11.786,0,0,0,2.219,7.356l.99,1.449,1.566-.794a50.75,50.75,0,0,0,7.078-4.632l.013-.01a46.791,46.791,0,0,1,6.416-4.225.813.813,0,0,1,.3-.05,1.136,1.136,0,0,1,.976.491.622.622,0,0,1-.122.262,25.351,25.351,0,0,1-7.172,6.557,86.291,86.291,0,0,1-9.158,5.078l-.688.34-.284.714a14.759,14.759,0,0,0-.9,7.142,11.921,11.921,0,0,0,3.04,6.769l.813.866,1.149-.3c4.874-1.269,10.576-5.814,13.639-8.257l.235-.186.027-.022.348-.276a.818.818,0,0,1,.492-.173A.769.769,0,0,1,424.319,118.691ZM256.965,84.732a182.958,182.958,0,0,1,5,30.367l.13,1.635,1.629.193a45.441,45.441,0,0,0,5.261.314,35.766,35.766,0,0,0,20.911-6.27l1.17-.832-.415-1.375a30.749,30.749,0,0,0-4.9-9.617,37.851,37.851,0,0,0-7.462-7.364,66.365,66.365,0,0,0-18.737-9.433l-3.492-1.2ZM224,43.176c-1.457,3.3-1.427,6.917.09,11.056a53.227,53.227,0,0,0,5.231,9.712l.009.014,0,.005.02.032c1.184,1.878,2.3,3.65,3.142,5.314l.031.061.035.059c6.913,11.65,10.794,26.265,11.534,43.44l.076,1.778,1.775.13c3.236.238,6.5.7,9.662,1.144l.043.006.055.008.416.059.073.011.369.051.052.008.8.111,2.727.379-.483-2.711c-.46-2.578-.893-5.139-1.241-7.2l0-.017v-.006a245.822,245.822,0,0,0-5.176-25.155,97.5,97.5,0,0,0-4.25-12.208,73.932,73.932,0,0,0-6.252-11.679c-4.865-7.378-10.1-12.41-16-15.385l-1.88-.948ZM202.551,32.1a103.038,103.038,0,0,1-13.785,14.843,79.317,79.317,0,0,1-16.54,11.189l-.947.475-.139,1.05c-.894,6.75-4.244,12.524-10.242,17.655l-.986.844.369,1.244a39.332,39.332,0,0,0,6.569,12.816,46.982,46.982,0,0,0,10.274,9.744A60.458,60.458,0,0,0,189.76,108.7a70.783,70.783,0,0,0,13.755,3.847l1,.174.731-.7c4.919-4.739,8.5-11.368,10.638-19.7a81.149,81.149,0,0,0,2.207-22.032l-.022-.746-.506-.548a41.713,41.713,0,0,1-5.728-7.9,42.991,42.991,0,0,1-3.637-8.66,57.39,57.39,0,0,1-2.062-19.029l.293-6.358Zm62.615,33.191a42.6,42.6,0,0,1,3.439,5.637A35.825,35.825,0,0,1,272.353,83.3l.114,1.058.94.5a50.655,50.655,0,0,1,11.918,8.492,34.366,34.366,0,0,1,7.981,11.842l1.077,2.714,2.141-1.985c6.083-5.639,10.286-9.349,14.053-12.407a82.588,82.588,0,0,1,11.673-8.157c7.346-4.113,14.493-5.868,23.9-5.868,6.291,0,13.962.779,24.87,2.527l2.022.324.276-2.03c.586-4.309,1.006-8.706,1.251-13.068a42.8,42.8,0,0,1-6.617.533,47.754,47.754,0,0,1-11.273-1.454,35.85,35.85,0,0,0-8.5-1.122,40.754,40.754,0,0,0-8.648,1.116l-.008,0-.012,0h-.005a52.983,52.983,0,0,1-11.687,1.385,43.113,43.113,0,0,1-9.087-.837c-.8-.164-1.63-.362-2.18-.493l-.068-.015-.009,0-.177-.042a35.532,35.532,0,0,0-17.348.01,49.253,49.253,0,0,1-11.513,1.4,48.847,48.847,0,0,1-11.507-1.407,35.936,35.936,0,0,0-8.517-1.115C266.641,65.2,265.907,65.232,265.166,65.291Zm94.394-1.1a41.427,41.427,0,0,0,8.762,1.13,33.561,33.561,0,0,0,6.369-.651c.084-2.107.13-4.24.134-6.339a43.7,43.7,0,0,1-6.889.572,47.6,47.6,0,0,1-11.259-1.45,35.861,35.861,0,0,0-8.5-1.122,40.755,40.755,0,0,0-8.649,1.116l-.007,0-.01,0-.01,0A52.923,52.923,0,0,1,327.82,58.84a42.66,42.66,0,0,1-11.522-1.39,35.532,35.532,0,0,0-17.348.01A49.541,49.541,0,0,1,287.333,59a43.962,43.962,0,0,1-10.215-1.347l-.01,0-.01,0-.229-.05a40.47,40.47,0,0,0-9.421-1.3,37.34,37.34,0,0,0-8.839,1.154l-.409.1-.029.007c.937.837,1.846,1.714,2.7,2.6s1.672,1.8,2.444,2.737c1.317-.124,2.593-.184,3.9-.184A52.612,52.612,0,0,1,278.3,64.076l.007,0,.006,0h.005a44.484,44.484,0,0,0,9.113,1.181,34.5,34.5,0,0,0,8.974-1.125l.019,0a42.111,42.111,0,0,1,10.565-1.307h-.014l-.016,0-.008,0a6.16,6.16,0,0,1,.887-.032,50.668,50.668,0,0,1,11.309,1.4,30.817,30.817,0,0,0,8.672,1.068,34.173,34.173,0,0,0,8.942-1.125l.016,0a42.412,42.412,0,0,1,11.234-1.317A52.4,52.4,0,0,1,359.56,64.193Zm0-8.866a41.392,41.392,0,0,0,8.766,1.13,33.65,33.65,0,0,0,6.486-.673c-.028-2.054-.1-4.154-.2-6.243a46.074,46.074,0,0,1-6.405.433,41.236,41.236,0,0,1-11.143-1.305l-.009,0-.008,0-.006,0a33.5,33.5,0,0,0-9.027-1.135,30.933,30.933,0,0,0-8.656,1.059l-.009,0-.008,0h-.007a42.663,42.663,0,0,1-11.512,1.381,43.125,43.125,0,0,1-9.087-.837c-.742-.152-1.436-.315-2.2-.5l-.022,0-.006,0-.024-.005-.18-.043a31.114,31.114,0,0,0-8.672-1.058,37.438,37.438,0,0,0-9.109,1.166h-.008a43.142,43.142,0,0,1-11.075,1.278,41.075,41.075,0,0,1-11.324-1.345,33.79,33.79,0,0,0-4.732-.9,34.9,34.9,0,0,0-3.878-.212,37.842,37.842,0,0,0-8.89,1.081A48.982,48.982,0,0,1,247.09,50h-.067c1.114.555,2.232,1.168,3.322,1.819a51.314,51.314,0,0,1,5.2,3.557l.013,0,.01,0,.048-.01.369-.076.021,0,.04-.008.479-.1a47.324,47.324,0,0,1,16.287-.953,39,39,0,0,1,5.945,1.1l.013,0,.006,0,.01,0a30.394,30.394,0,0,0,8.645,1.066,34.5,34.5,0,0,0,8.972-1.125h.007l.013,0a42.1,42.1,0,0,1,10.566-1.307h-.014l-.014,0-.01,0a6.16,6.16,0,0,1,.887-.032,50.694,50.694,0,0,1,11.309,1.4,30.817,30.817,0,0,0,8.672,1.068,34.186,34.186,0,0,0,8.941-1.125l.018,0a42.407,42.407,0,0,1,11.234-1.317A52.366,52.366,0,0,1,359.559,55.328ZM126.093-42.889c.036,3.038-.155,7.564-.376,12.8l0,.066,0,.089v.006c-.487,11.518-1.154,27.292-.143,41.784a111.36,111.36,0,0,0,3.039,20.331,48.445,48.445,0,0,0,2.98,8.376,25.77,25.77,0,0,0,4.34,6.575,15.1,15.1,0,0,0,11.015,5.017l.089,0,.089-.006a88.137,88.137,0,0,0,20.214-3.413A41.13,41.13,0,0,0,182,40.905a42.39,42.39,0,0,0,10.133-13.193,95.217,95.217,0,0,0,6.962-19.141l.477-1.8-1.76-.6a15.57,15.57,0,0,1-10.086-9.738c-1.769-4.565-2.214-10.16-2.644-15.571-.391-4.937-.8-10.041-2.224-14.353-1.7-5.125-4.648-8.547-9.022-10.463l-.064-.028-.067-.023a40.988,40.988,0,0,0-14.132-2.18c-4.282,0-8.6.427-12.774.841l-.027,0c-4.073.4-8.286.82-12.331.82a46.144,46.144,0,0,1-6.083-.371l-2.29-.3ZM211.992-5.7A11.337,11.337,0,0,0,208.1-1.416c-.293.5-.594,1-.795,1.336l-.034.058L207.26,0l-.046.076A36.452,36.452,0,0,0,203,8.775a12.9,12.9,0,0,0-.446,5.054,11.423,11.423,0,0,0,2.018,5.183l.394.567.661.2a10.881,10.881,0,0,0,3.2.492c4.063,0,7.974-2.417,11.014-6.8a25.3,25.3,0,0,0,4.379-12.023l.134-2.126h-.229a7.934,7.934,0,0,0-2.065-4.561,6.858,6.858,0,0,0-4.991-2.036A9.434,9.434,0,0,0,211.992-5.7ZM324.769,11.421h13.179a12.458,12.458,0,0,0,2.9-.33h0l.057-.014.008,0,.122-.03.021-.005.034-.009.034-.009.021-.005.039-.01.014,0,.253-.07h0a12.431,12.431,0,0,0,1.182-.407l0,0,.039-.016.019-.008.032-.013.025-.01.029-.012.037-.015.017-.007.057-.024,0,0,.054-.023.005,0,.055-.024h0A12.452,12.452,0,0,0,350.143,1.7a1.217,1.217,0,0,1,.76-.87v0l12.019-4.5c-.235-.586-.417-1.036-.611-1.5l-.189-.46-.383-.317A1.221,1.221,0,0,1,361.6-7.2a2.292,2.292,0,0,1,.383-.72c.507-.078,1.147-.173,1.9-.276V-18.683h-9.216a1.222,1.222,0,0,1-1.158-.827,1.222,1.222,0,0,1,.41-1.364c.779-1.8.4-1.836,0-3.314a1.223,1.223,0,0,1-.41-1.364,1.223,1.223,0,0,1,1.161-.826h9.216v-9.064H358.07a1.223,1.223,0,0,1-1.161-.826,1.222,1.222,0,0,1,.41-1.364,1.921,1.921,0,0,0,0-3.345,1.222,1.222,0,0,1-.41-1.364,1.223,1.223,0,0,1,1.161-.826h5.812v-1.347h-1.293a1.207,1.207,0,0,1-1.172-.958c-16.34-4.653-31.551-12.482-36.647-15.238V-53h6.661a1.226,1.226,0,0,1,.751.257c6.826,3.743,4.6,8,0,9.866a1.232,1.232,0,0,1-.751.257H324.77v14H335.8a1.237,1.237,0,0,1,.748.255c4.174,2.464,6.182,5.413,0,9.811a1.23,1.23,0,0,1-.748.254H324.769ZM281.629-10.71H294.84a1.222,1.222,0,0,1,1.132.765l8.568,21.363h17.783V-18.3H304.466a1.223,1.223,0,0,1-1.157-.826,1.223,1.223,0,0,1,.407-1.363c2.858-3.469,1.52-3.128,0-5.943a1.223,1.223,0,0,1-.407-1.363,1.221,1.221,0,0,1,1.157-.825h17.854v-14H311.269a1.222,1.222,0,0,1-1.158-.827,1.222,1.222,0,0,1,.41-1.363c1.1-2.868.328-5.768,0-6a1.22,1.22,0,0,1-.412-1.363A1.219,1.219,0,0,1,311.271-53h11.052v-7.89c-18.475,8.342-32.5,10.971-38.564,11.766a1.216,1.216,0,0,1-.834.338h-1.3v1.254h3.233a1.224,1.224,0,0,1,.748.257c3.7,1.639,3.927,6.009,0,8.067a1.228,1.228,0,0,1-.751.254h-3.227v7.325H287.5a1.238,1.238,0,0,1,.749.255c1.579,1.667,5.9,3.5,0,8.069a1.221,1.221,0,0,1-.749.259h-5.871ZM366.323-8.5c1.987-.233,4.4-.471,7.076-.646,1.223.023,2.444.085,3.628.184l20.129-7.545,0,0a106.043,106.043,0,0,1-13.409-9.234A150.052,150.052,0,0,1,371.8-36.268c-.358.885-1.5.86-2,.834-.083,0-.148-.009-.186-.008h-3.3v9.067H371.8a1.234,1.234,0,0,1,.751.254c2.663,2.054,2.662,5.131,0,7.185a1.237,1.237,0,0,1-.751.257h-5.482ZM158.931-50.153h0v.534c6.548,0,11.43.706,15.362,2.221a20.772,20.772,0,0,1,10.772,9.23,51.524,51.524,0,0,1,1.825,5.123l.006.02.006.02c1.712,5.423,3.329,10.545,11.714,13.411l.045.014a24.581,24.581,0,0,0,7.389,1.163,23.853,23.853,0,0,0,13.92-4.557,26.987,26.987,0,0,0,5.261-4.973,27.779,27.779,0,0,0,3.777-6.169,25.487,25.487,0,0,0,2.119-13.34,23.212,23.212,0,0,0-1.886-6.8,24.471,24.471,0,0,0-4.159-6.321l-.059-.062a18.737,18.737,0,0,0-1.543-1.351L223.468-62l-.005,0c-1.884-1.534-2.5-2.23-2.23-3.083l.019-.061a29.329,29.329,0,0,0-.776-18.179A28.34,28.34,0,0,0,215.94-91.3a26.492,26.492,0,0,0-7.062-6.122,36.007,36.007,0,0,0-11.523-4.269,62.789,62.789,0,0,0-12.366-1.088c-5.578,0-10.989.494-16.222.973l-.029,0c-1.145.1-2.18.2-3.074.275l-1.513.132-.03,0c-8.211.715-16.7,1.455-25.036,1.455a94.408,94.408,0,0,1-20.011-1.89,56.5,56.5,0,0,1-18.318-7.251l-3.424-2.138.373,4.019a38.825,38.825,0,0,0,5.529,16.3l.018.035.023.041.028.05c.482.867.938,1.684,1.225,2.335a3.467,3.467,0,0,1,.3.91,3.564,3.564,0,0,1-1.016.467,22.23,22.23,0,0,1-3.649.757c-3.52.5-8.774.878-15.58,1.29l-2.805.169,1.079,2.595a65.746,65.746,0,0,0,10.257,17.36,43.86,43.86,0,0,0,12.514,10.273,46.454,46.454,0,0,0,13.854,4.781,77.843,77.843,0,0,0,14.278,1.161c4.416,0,8.883-.249,12.823-.469l.058,0h.013l.05,0,.036,0,.3-.017.022,0h.014c4.137-.232,8.046-.451,11.851-.451v-.533h0ZM307.6-20.744h27.776c4.225-2.392,2.837-4.058,0-5.429H307.6C309.158-24.047,308.919-21.52,307.6-20.744Zm48.459-.13,15.314-.252c1.844-.9,1.024-2.352,0-2.8l-14.924-.257C356.317-23,356.888-23.217,356.055-20.874Zm-83.788-4.619h14.8c2.008-1.708,2.009-1.984,0-3.692H272.752A4.6,4.6,0,0,1,272.267-25.493Zm88.481-12.392h8.433c1.108-1-.759-2.834-.759-2.834h-7.672A2.183,2.183,0,0,1,360.748-37.885ZM275.336-41.4h9.081c2.67-1.1,2.084-2.837,0-3.69h-8.275C275.869-44.25,276.716-43.776,275.336-41.4Zm37.871-3.665H331c6.076-2.454,1.469-5.063,0-5.49H313.207A12.5,12.5,0,0,1,313.207-45.063ZM48.149,204.436a2.241,2.241,0,0,1,.44-2.47,2.94,2.94,0,0,1,1.806-.878c.846,0,1.455.836,1.817,1.537a1.985,1.985,0,0,1-.085,1.952,2.532,2.532,0,0,1-2.278,1.116l-.093,0c-.027,0-.053,0-.077,0A1.793,1.793,0,0,1,48.149,204.436Zm106.638-167.8a4.53,4.53,0,0,1-1.284-1.653,34.8,34.8,0,0,1-1.686-3.828l0-.012-.008-.02,0-.008a29.728,29.728,0,0,0-1.814-4.027c-.932-1.754-1.257-3.274-.85-3.968.362-.617,1.6-.99,3.4-1.023h.03c2.029,0,4.329,4.083,4.953,7.6l.022.124.038.121c.632,2.028.381,4.719-.559,6a1.741,1.741,0,0,1-1.52.782A3.432,3.432,0,0,1,154.787,36.638Zm185.576-5.952a3.672,3.672,0,0,1-3.668-3.668V21.209a3.672,3.672,0,0,1,3.668-3.667h5.807a3.672,3.672,0,0,1,3.668,3.667v5.809a3.672,3.672,0,0,1-3.668,3.668Zm-1.223-9.474v5.807a1.227,1.227,0,0,0,1.223,1.222h5.807a1.223,1.223,0,0,0,1.222-1.222V21.212a1.224,1.224,0,0,0-1.222-1.223h-5.807A1.225,1.225,0,0,0,339.141,21.212Zm-15.688,9.474a3.672,3.672,0,0,1-3.668-3.668V21.209a3.672,3.672,0,0,1,3.668-3.667l5.808,0a3.672,3.672,0,0,1,3.668,3.668v5.807a3.672,3.672,0,0,1-3.668,3.668Zm-1.222-9.474v5.807a1.226,1.226,0,0,0,1.222,1.222h5.808a1.223,1.223,0,0,0,1.222-1.222V21.212a1.224,1.224,0,0,0-1.222-1.223h-5.808A1.224,1.224,0,0,0,322.231,21.212ZM306.54,30.686a3.672,3.672,0,0,1-3.668-3.668V21.209a3.672,3.672,0,0,1,3.668-3.667l5.808,0a3.672,3.672,0,0,1,3.667,3.668v5.807a3.672,3.672,0,0,1-3.667,3.668Zm-1.222-9.474v5.807a1.227,1.227,0,0,0,1.222,1.222h5.808a1.223,1.223,0,0,0,1.222-1.222V21.212a1.224,1.224,0,0,0-1.222-1.223H306.54A1.224,1.224,0,0,0,305.318,21.212ZM139.683,14.8a2.123,2.123,0,0,1-1.21-1.051c-.717-1.364-.583-3.991.349-6.855a18.631,18.631,0,0,1,2.458-5.025A7.927,7.927,0,0,1,145.043-1.2a.387.387,0,0,1,.118-.023c.07,0,.166.1.226.2a.8.8,0,0,1,.077.717,16.3,16.3,0,0,1-1.715,2.5l-.005.006,0,.005-.012.015,0,.005a17.3,17.3,0,0,0-2.456,3.808c-.989,1.637-.943,3.75-.9,5.615v.02a17.5,17.5,0,0,1-.039,2.269,1.909,1.909,0,0,1-.211.8,1.108,1.108,0,0,1-.419.056ZM159.789-7.926a10.923,10.923,0,0,1-1.026-5.17,9.871,9.871,0,0,1,1.1-4.793c1.107-.99,1.659-1.084,1.759-1.093.247.2.909,1.386,1,4.361A20.067,20.067,0,0,1,161.9-8.3l-.028.084a1.167,1.167,0,0,1-.959.811,1.36,1.36,0,0,1-.15.01A1.159,1.159,0,0,1,159.789-7.926Zm-23.026,0a10.932,10.932,0,0,1-1.026-5.171,9.878,9.878,0,0,1,1.1-4.793c1.1-.988,1.659-1.083,1.759-1.092.247.2.908,1.382,1,4.361a20.065,20.065,0,0,1-.723,6.317l-.028.085a1.164,1.164,0,0,1-.959.81c-.064.006-.11.01-.149.01A1.173,1.173,0,0,1,136.762-7.925ZM390.308-72.186a65.9,65.9,0,0,1-11.21-6.086,66.427,66.427,0,0,1-9.768-8.06,66.521,66.521,0,0,1-8.06-9.768,65.975,65.975,0,0,1-6.085-11.211A65.591,65.591,0,0,1,350-133a65.587,65.587,0,0,1,5.187-25.69,65.783,65.783,0,0,1,6.085-11.211,66.382,66.382,0,0,1,8.059-9.768,66.4,66.4,0,0,1,9.768-8.059,65.85,65.85,0,0,1,11.211-6.085A65.588,65.588,0,0,1,416-199a65.581,65.581,0,0,1,25.69,5.187,65.917,65.917,0,0,1,11.211,6.085,66.472,66.472,0,0,1,9.769,8.059,66.543,66.543,0,0,1,8.059,9.769,66.069,66.069,0,0,1,6.086,11.21A65.588,65.588,0,0,1,482-133a65.588,65.588,0,0,1-5.187,25.69,66.048,66.048,0,0,1-6.086,11.21,66.6,66.6,0,0,1-8.059,9.769,66.574,66.574,0,0,1-9.769,8.06,66.063,66.063,0,0,1-11.211,6.085A65.587,65.587,0,0,1,416-67,65.6,65.6,0,0,1,390.308-72.186Zm47.957-60.985v33.646H453.58v-24H464.16v-10.737H453.58v-8.684H464.16v-10.737H453.58v-13.1H442.752l-27.135,38.516L388.932-166.79H378.105v13.1H367.527v10.739h10.579v8.684H367.527v10.737h10.579v24h15.318v-33.648l22.421,32.07,22.419-32.067,0,0Z" transform="translate(44.001 673.001)" fill="#0099bf"/></g></svg>