<svg xmlns="http://www.w3.org/2000/svg" xmlns:xlink="http://www.w3.org/1999/xlink" width="501.001" height="585.882" viewBox="0 0 501.001 585.882"><defs><style>.a{fill:rgba(255,255,255,0.8);}.b{fill:#0099bf;}.c{filter:url(#a);}</style><filter id="a" x="0" y="0" width="501.001" height="585.882" filterUnits="userSpaceOnUse"><feOffset dy="3" input="SourceAlpha"/><feGaussianBlur stdDeviation="3" result="b"/><feFlood flood-opacity="0.161"/><feComposite operator="in" in2="b"/><feComposite in="SourceGraphic"/></filter></defs><g transform="translate(-38.999 -463)"><g class="c" transform="matrix(1, 0, 0, 1, 39, 463)"><path class="a" d="M190.673,368.882h-.036a6.339,6.339,0,0,1-5.991-4.556l-.031-.112c-2.821-11.217-5.812-22.551-8.892-33.688-.958-3.5-2.017-7.051-3.039-10.489-1.9-6.377-3.852-12.944-5.321-19.6-.534-.77-1.065-1.517-1.583-2.228a40.211,40.211,0,0,1-8.089-2.312,30.835,30.835,0,0,1-6.416-3.542,132.924,132.924,0,0,1-5.281,12.527,58.381,58.381,0,0,1-10.383,15.184l-.027.027a21.3,21.3,0,0,1-6.825,4.657,19.084,19.084,0,0,1-7.393,1.472,24.638,24.638,0,0,1-13.925-4.705,33.186,33.186,0,0,1-8.307-8.348c-6.8,4.183-15.235,6.219-25.742,6.219-2.661,0-5.434-.128-8.476-.39-11.754-.911-22.036-4.007-30.559-9.2A52.183,52.183,0,0,1,23.484,301a50.992,50.992,0,0,1-7.84-10.962,56.069,56.069,0,0,1-5.535-15.962,67.332,67.332,0,0,1-.9-17.554,81.306,81.306,0,0,1,3.585-18.27A94.173,94.173,0,0,1,20,221.435a38.923,38.923,0,0,1-3.007-16.944,50.432,50.432,0,0,1,4.339-18.085,64.973,64.973,0,0,1,10-15.958q1.917-2.267,4-4.333a25.423,25.423,0,0,0,2.436-6.178c-.027-.48-.048-.839-.048-.839q-.431-.359-.849-.738a33.493,33.493,0,0,1-6.241-7.78,46.578,46.578,0,0,1-4.073-9.05,56.345,56.345,0,0,1-2.219-9.268,55.721,55.721,0,0,1,1.418-25.007A57.613,57.613,0,0,1,36.974,86.69c7.916-9.477,19.145-17.458,32.47-23.08A108.7,108.7,0,0,1,88.9,57.5a103.026,103.026,0,0,1,18.872-2.286,39,39,0,0,1,19.477-5.216c.93,0,1.864.033,2.8.1q.076-.3.148-.608a82.413,82.413,0,0,1-4.378-14.81,172.234,172.234,0,0,1-3.027-25.542c-.418-8.088-.464-16.836-.139-26,.282-7.972.8-14.76,1.213-19.3a55.162,55.162,0,0,1-13.547-4.6,59.633,59.633,0,0,1-14.181-9.709A59.012,59.012,0,0,1,85.276-63.824a53.532,53.532,0,0,1-6.331-16,6.418,6.418,0,0,1,1.129-5.461,6.414,6.414,0,0,1,5.038-2.541h.07l.069,0c1.066.034,2.146.051,3.212.051,3.224,0,6.486-.159,9.715-.474a56.724,56.724,0,0,1-2.326-7.954,50.4,50.4,0,0,1-1.073-7.335,16.99,16.99,0,0,1,.934-7.746,6.4,6.4,0,0,1,2.177-2.729,5.566,5.566,0,0,1,3.235-.984,8.809,8.809,0,0,1,4.1,1.15l.309.162.264.229a42.359,42.359,0,0,0,16.405,8.827,67.333,67.333,0,0,0,18.7,2.3c7.484,0,15.334-.8,22.926-1.574l.08-.008c7.7-.785,15.665-1.6,23.3-1.6a69.152,69.152,0,0,1,20.633,2.737,46.844,46.844,0,0,1,9.645,4.208,45.8,45.8,0,0,1,8.868,6.743l.115.113.1.124a36.889,36.889,0,0,1,4.447,6.739,36.959,36.959,0,0,1,2.847,7.456A36.865,36.865,0,0,1,235.04-69.5a37.035,37.035,0,0,1-.215,5.666,31.5,31.5,0,0,1,9.634,7.052,34.828,34.828,0,0,1,7.195,11.831,39.032,39.032,0,0,1-2.11,31.613c-1.964,4.789-5.312,8.241-8.55,11.581-1.522,1.57-2.965,3.058-4.235,4.645a25.026,25.026,0,0,1-.549,9.771,30.81,30.81,0,0,1-4.842,10.426,26.66,26.66,0,0,1-6.919,6.762A20.757,20.757,0,0,1,218,32.722c-.015.689-.027,1.334-.036,1.943.726.508,1.517,1.044,2.36,1.6A38.594,38.594,0,0,1,245.187,46.9l2.626.375a29.9,29.9,0,0,0,4.264.256,28.956,28.956,0,0,0,7.833-.994c.876-.208,1.786-.423,2.8-.623V38.795A11.1,11.1,0,0,1,267.051,30h-.806a6.236,6.236,0,0,1-5.666-3.652L247.78-1.918a6.19,6.19,0,0,1,.185-5.513l-.376-.831h.912a6.193,6.193,0,0,1,4.944-2.444H268.3a6.209,6.209,0,0,1,2.269-3.495,3.951,3.951,0,0,0,1.52-3.12,3.961,3.961,0,0,0-1.529-3.153,6.232,6.232,0,0,1-2.088-6.942c.015-.045.031-.089.048-.133l-1.219-1.635h2.119a6.238,6.238,0,0,1,2.824-2.069A6.219,6.219,0,0,1,274.67-36.1a6.788,6.788,0,0,1-2.09-7.221,6.31,6.31,0,0,1,.387-.9l-.507-.873h1.066a6.23,6.23,0,0,1,3.616-2.3,6.262,6.262,0,0,1,2.489-2.916,6.232,6.232,0,0,1,5.779-3.916,6.212,6.212,0,0,1,4.849,2.327,140.524,140.524,0,0,0,34.512-11V-64.1l1.209.653.936-.435L328.523-64l1.49.21c-.053-.047.156,0,.467.106l.24.043.673.33.1.054.833-.376v.84A193.086,193.086,0,0,0,365.16-48.627a6.217,6.217,0,0,1,4.946-2.451,6.232,6.232,0,0,1,6.147,5.255,6.164,6.164,0,0,1,2.579,4.283,12.715,12.715,0,0,1,3.685,5.194c12.041,12.117,21.4,17.317,24.517,19.051a19.274,19.274,0,0,1,1.659.995l1.144.834.91,1.731a8.5,8.5,0,0,1,.4,1.622l2.707,1.553L411.01-9.492a5.852,5.852,0,0,1-2.624,3.4l-.8.868-.353-.238-5.439,2.04.2.109a47.868,47.868,0,0,1,16.856,15.646,74.432,74.432,0,0,1,9.724,22.135,122.19,122.19,0,0,1,3.713,22.171c.144-.006.288-.009.431-.009a9.794,9.794,0,0,1,7.835,3.908,11.337,11.337,0,0,1,2.353,5.748,15.12,15.12,0,0,1-.53,5.737,35.459,35.459,0,0,1-3.116,7.34,10.834,10.834,0,0,1,3.424,3.211,14.416,14.416,0,0,1,2.3,5.984,17.73,17.73,0,0,1-.106,5.99,8.653,8.653,0,0,0,.044,2.02,3.878,3.878,0,0,0,.485,1.01c.249.441.559.99.918,1.739a16.3,16.3,0,0,1,1.729,9.208A31.335,31.335,0,0,1,446,116.652c-.273,1.417.271,2.828.956,4.607a23.786,23.786,0,0,1,1.231,3.862c1.078,5.269-.458,11.076-4.214,15.93l-.065.081a35.094,35.094,0,0,1-5.089,5c.439-2.161.355-1.818-.043.034l.043-.034c-1.781,8.753-4.061,19.513-6.406,30.415.009-.094.018-.187.026-.28-.522,2.52-.641,3.137-.026.28-.018.193-.035.387-.053.58l-.008.077c-.436,3.738-.725,7.569-1,11.274a178.5,178.5,0,0,1-2.032,18.383,177.249,177.249,0,0,1-2.973,25.82,79.06,79.06,0,0,1-8.081,23.2,50.785,50.785,0,0,1-6.908,9.63,44.757,44.757,0,0,1-9.292,7.7,49.036,49.036,0,0,1-11.892,5.291,65.93,65.93,0,0,1-14.625,2.5,25.434,25.434,0,0,0-13.364,5.171c-3.907,2.837-7.348,6.5-10.993,10.372-2.343,2.491-4.766,5.068-7.349,7.431l-.1.089a74.443,74.443,0,0,1-16.572,10.471,62.72,62.72,0,0,1-15.91,5.326,73.009,73.009,0,0,1-13.868,1.182c-2.4,0-4.74-.077-6.8-.143l-.161-.005c-2.126-.069-4.135-.135-6.116-.135a38.4,38.4,0,0,0-11.55,1.377,28.538,28.538,0,0,0-10.865,6.2c-5.057,5.593-9.789,10.375-14.464,14.62a130.109,130.109,0,0,1-16.688,12.989,86.286,86.286,0,0,1-18.9,9.317,66.3,66.3,0,0,1-21.15,3.612ZM235.324-61.249l-.116-.156-.056-.03ZM370.795-77.8A70.532,70.532,0,0,1,350-128a71.08,71.08,0,0,1,71-71,71.08,71.08,0,0,1,71,71,71.081,71.081,0,0,1-71,71A70.533,70.533,0,0,1,370.795-77.8Z" transform="translate(0 205)"/></g><path class="b" d="M184.453,357.947c-2.837-11.276-5.834-22.632-8.909-33.751-.985-3.594-2.092-7.31-3.068-10.588a230.384,230.384,0,0,1-6.049-23.262l-.271-1.46-1.476-.163a37.438,37.438,0,0,1-10.093-2.453,23.91,23.91,0,0,1-8.205-5.41l-2.231-2.3-1.087,3.018a155.357,155.357,0,0,1-6.552,16.093,53.549,53.549,0,0,1-9.469,13.9,14.777,14.777,0,0,1-10.678,4.659,19.683,19.683,0,0,1-11.078-3.816,28.209,28.209,0,0,1-8.5-9.437l-1.111-2.021-1.844,1.384c-6.322,4.747-14.643,7.055-25.44,7.055-2.521,0-5.155-.121-8.054-.372H60.32c-10.971-.848-20.513-3.7-28.36-8.489a45.933,45.933,0,0,1-16.9-17.837,51.03,51.03,0,0,1-5.036-14.54,62.3,62.3,0,0,1-.83-16.25,76.277,76.277,0,0,1,3.367-17.143,89.562,89.562,0,0,1,7.534-17.192l.513-.9-.446-.94a33.754,33.754,0,0,1-3.172-16.026A45.47,45.47,0,0,1,20.915,183.4a60.012,60.012,0,0,1,9.231-14.727,59.2,59.2,0,0,1,12.54-11.217l3.391-2.22-3.826-1.34a20.593,20.593,0,0,1-7.026-4.242,28.539,28.539,0,0,1-5.3-6.625,47,47,0,0,1-5.651-16.538l0-.022a50.773,50.773,0,0,1,1.274-22.794A52.63,52.63,0,0,1,35.812,84.894c7.408-8.869,17.98-16.365,30.576-21.678a103.7,103.7,0,0,1,18.557-5.831,97.627,97.627,0,0,1,18.709-2.192l.539-.009.463-.28a33.962,33.962,0,0,1,25.65-3.94l4.635,1.132L132.5,48c-2.844-4.771-5.128-11.274-6.788-19.329a167.262,167.262,0,0,1-2.93-24.791A331.271,331.271,0,0,1,124.1-43.457l.193-1.913-1.9-.267a49.555,49.555,0,0,1-14.882-4.614,54.662,54.662,0,0,1-12.992-8.9,54.049,54.049,0,0,1-9.939-12.224,48.577,48.577,0,0,1-5.756-14.56l-.02-.084a1.458,1.458,0,0,1,.25-1.244,1.441,1.441,0,0,1,1.1-.571c1.1.035,2.219.053,3.316.053A105.35,105.35,0,0,0,98.094-88.8l3.722-.525L99.3-92.121c-.747-.83-2.4-4.819-3.561-10.148-1.173-5.39-1.348-9.982-.456-11.984.332-.747.616-.747.844-.747a3.761,3.761,0,0,1,1.582.481,47.285,47.285,0,0,0,8.647,5.9,49.531,49.531,0,0,0,9.464,3.792,72.22,72.22,0,0,0,20.084,2.493,233.78,233.78,0,0,0,23.434-1.6l.078-.008c7.577-.772,15.412-1.571,22.791-1.571A64.284,64.284,0,0,1,201.359-103a40.31,40.31,0,0,1,16.436,9.688,31.919,31.919,0,0,1,3.775,5.742,31.928,31.928,0,0,1,2.46,6.444,31.94,31.94,0,0,1,1.015,6.822,31.962,31.962,0,0,1-.493,6.96l-.3,1.633,1.552.594a27.894,27.894,0,0,1,16.157,16.891,34.5,34.5,0,0,1,2,13.966,32.941,32.941,0,0,1-3.892,13.675l-.059.105-.044.112c-1.588,3.964-4.492,6.959-7.566,10.13a59.243,59.243,0,0,0-5.459,6.186l-.539.737.2.89a19.271,19.271,0,0,1-.253,8.875,25.816,25.816,0,0,1-4.052,8.717,21.982,21.982,0,0,1-5.614,5.506,15.075,15.075,0,0,1-6.83,2.528l-1.75.175-.051,1.758c-.1,3.463-.152,6.372-.087,9.315l.048,2.163,2.153-.217a33.6,33.6,0,0,1,27.209,9.752l.382.384.524.139a44.934,44.934,0,0,1,5.234,1.746l-1.417-1.2a34.747,34.747,0,0,0,4.971.307,33.9,33.9,0,0,0,9-1.132l.005,0,.005,0a41.807,41.807,0,0,1,11.185-1.309,52.644,52.644,0,0,1,11.589,1.378l.017,0a41.347,41.347,0,0,0,8.708,1.12A36.221,36.221,0,0,0,296.1,46.47,42.241,42.241,0,0,1,306.992,45.1l.634-.013a42.719,42.719,0,0,1,11.526,1.376,36.586,36.586,0,0,0,8.551,1.072,47.088,47.088,0,0,0,9.72-1.223h.007l.009,0,.229-.046.009,0a50.808,50.808,0,0,1,10.514-1.27,47.957,47.957,0,0,1,11.349,1.477,34.878,34.878,0,0,0,8.308,1.047,38.8,38.8,0,0,0,6.606-.614q-.338-5.041-.984-10.06-.75-5.824-1.909-11.577A47.107,47.107,0,0,1,350.9,42.107a1.255,1.255,0,0,1-1.7-1.125,1.22,1.22,0,0,1,.843-1.166,44.664,44.664,0,0,0,20.8-17.942q-.8-3.6-1.768-7.163a39.579,39.579,0,0,1-6.378,10.037,1.223,1.223,0,0,1-1.844-1.607,37.188,37.188,0,0,0,6.937-11.786h0a1.218,1.218,0,0,1,.228-.388q-1.853-6.26-4.2-12.368L352.363,2.891a14.879,14.879,0,0,1-14.416,10.976H303.716a1.221,1.221,0,0,1-1.131-.768L294.017-8.262H250.342l11.693,25.821h16.413a1.222,1.222,0,0,1,1.155.823l8.24,23.926a1.222,1.222,0,0,1-2.31.8L277.575,20H275.27l7.084,20.579a1.222,1.222,0,1,1-2.31.8L272.686,20h-4.052l2.411,7.01a2.6,2.6,0,0,1,.13.766,2.364,2.364,0,0,1-2.362,2.359,3.659,3.659,0,0,0-3.653,3.656V41.2a1.223,1.223,0,0,1-2.445,0V33.794a6.1,6.1,0,0,1,6.1-6.1L266.059,20h-4.814a1.222,1.222,0,0,1-1.112-.718L247.334-8.98a1.222,1.222,0,0,1,.085-1.167,1.22,1.22,0,0,1,1.028-.559h30.74v-2.338h-9.822a1.222,1.222,0,0,1-1.163-.824,1.221,1.221,0,0,1,.411-1.364,8.936,8.936,0,0,0,3.479-7.106,8.922,8.922,0,0,0-3.479-7.1,1.224,1.224,0,0,1-.407-1.363,1.223,1.223,0,0,1,1.158-.825h9.822V-34.95h-5.714a1.223,1.223,0,0,1-1.159-.827,1.223,1.223,0,0,1,.41-1.363,5.186,5.186,0,0,0,2.012-4.1,5.184,5.184,0,0,0-2.012-4.1,1.221,1.221,0,0,1-.412-1.363,1.221,1.221,0,0,1,1.161-.825h5.714v-1.255h-1.3a1.222,1.222,0,0,1-1.222-1.222,1.222,1.222,0,0,1,1.222-1.222h1.3V-53a1.222,1.222,0,0,1,1.222-1.222A1.223,1.223,0,0,1,281.633-53v1.653c4.425-.464,20.233-2.712,41.4-12.543l.02,0a1.21,1.21,0,0,1,.5-.11l.034,0c.034,0,.071.02.108.024a1.227,1.227,0,0,1,.409.115c.017.01.039.007.059.017.2.115,19.39,11.048,39.725,16.5v-2.519a1.222,1.222,0,0,1,1.223-1.222,1.222,1.222,0,0,1,1.222,1.222v2.9h1.3a1.214,1.214,0,0,1,1.258,1.167,1.215,1.215,0,0,1-1.168,1.258c.35.4.753.863,1.206,1.367h.7a1.22,1.22,0,0,1,.749.257,7.658,7.658,0,0,1,2.748,4.225c15.152,15.49,26.439,20.559,27.627,21.424.382.276.313.332.445.577.377,1.1-.491,1.293-.718,1.538L382.248-8.308l-.01.046q1.12.212,2.206.472A41.748,41.748,0,0,1,394.608-3.92,42.933,42.933,0,0,1,409.7,10.123a69.528,69.528,0,0,1,9.047,20.652,120.86,120.86,0,0,1,3.792,24.756l.175,3.118,2.758-1.462a4.8,4.8,0,0,1,6.094,1.367l.028.037c1.462,1.866,1.765,4.128.954,7.122a40.945,40.945,0,0,1-3.969,8.6l-.015.028-.022.04L428.2,75,426.808,77.5l2.833.441a5.693,5.693,0,0,1,3.933,2.478,11.311,11.311,0,0,1,1.359,8.341l-.029.142-.009.144a12.908,12.908,0,0,0,.146,3.61,8.177,8.177,0,0,0,1.009,2.375c.231.409.492.872.789,1.495l.04.08c2.321,4.352.986,9.251-.627,13.47l-.047.122-.031.129c-.709,2.981.262,5.5,1.119,7.726l.005.014a19.715,19.715,0,0,1,.994,3.052c.783,3.83-.4,8.146-3.249,11.84a29.952,29.952,0,0,1-9.717,7.69l-1.174.585.069,1.31c.389,7.393-.41,15.1-1.184,22.548-.222,2.145-.452,4.36-.651,6.556-.445,3.814-.735,7.673-1.017,11.4l0,.049,0,.024a172.959,172.959,0,0,1-2,18.026l-.023.127-.006.128a175.448,175.448,0,0,1-2.893,25.286A74.185,74.185,0,0,1,408.9,248.44c-7.842,14.044-20.5,21.429-38.691,22.577l-.031,0C357.713,272,350,280.2,342.55,288.123l-.043.047c-2.255,2.4-4.587,4.876-7,7.09a69.447,69.447,0,0,1-15.451,9.751l-.039.019a59.706,59.706,0,0,1-27.622,6.018c-2.313,0-4.6-.075-6.62-.139h-.019l-.161-.005h-.028c-2.159-.07-4.2-.136-6.251-.136a45.427,45.427,0,0,0-12.976,1.584,33.494,33.494,0,0,0-12.883,7.366l-.081.073-.073.081c-4.985,5.519-9.639,10.227-14.226,14.393a125.2,125.2,0,0,1-16.04,12.49,81.311,81.311,0,0,1-17.8,8.783,61.289,61.289,0,0,1-19.533,3.345A1.342,1.342,0,0,1,184.453,357.947Zm-14.259-60.622c5.047,15.472,9.246,31.486,13.306,46.974l.076.289c.878,3.346,1.785,6.807,2.7,10.255l.407,1.534,1.586-.048c7.135-.211,14.836-2.2,22.887-5.9a102.436,102.436,0,0,0,19.767-12.2,106.506,106.506,0,0,0,11.761-11.28,124.473,124.473,0,0,1,9.4-9.305,38.413,38.413,0,0,1,10.663-6.713l1.559-.625-.346-1.643c-4.379-20.814-7.4-42.357-10.315-63.189l0-.024c-.8-5.689-1.517-10.824-2.272-16.054l-.4-2.781-2.5,1.291a177.8,177.8,0,0,0-16.979,10.487l-.008.005c-6,4.02-12.2,8.177-18.61,11.282a58.343,58.343,0,0,1-9.8,3.775,43.987,43.987,0,0,1-10.5,1.642l-2.068.068.138,2.065a16.832,16.832,0,0,1-.326,3.525c-.327,2.073-.665,4.216.022,6.146l.115.325.218.267a14.668,14.668,0,0,1,2.507,4.618,16.849,16.849,0,0,1,.866,5.292,15.976,15.976,0,0,1-.817,5.191,12.739,12.739,0,0,1-2.438,4.334l-.707.814.29,1.038c3.069,10.991,5.976,22.238,8.787,33.115l0,.013.006.024q.2.782.4,1.564l.08.308.319,1.235.6,2.334,2.182-1.024c8-3.755,13.9-9.811,19.6-15.667l0-.005a108.249,108.249,0,0,1,11.08-10.351,44.9,44.9,0,0,1,6.371-4.154,38.292,38.292,0,0,1,7.448-3.028l.083-.026a1.549,1.549,0,0,1,.492-.092c.654,0,.949.736,1.021,1.172a1.45,1.45,0,0,1-.947,1.721c-10.283,3.118-17.466,10.482-24.413,17.6A110.184,110.184,0,0,1,212.628,323.7a34.566,34.566,0,0,1-12.715,6.542,1.491,1.491,0,0,1-.368.047,1.474,1.474,0,0,1-1.393-1.026c-.61-2.372-1.235-4.79-1.84-7.128l-.035-.136-.2-.76,0-.011c-2.426-9.383-4.933-19.085-7.261-28.711l-.66-2.728-2.363,1.514a26.626,26.626,0,0,1-5.325,2.667,16.354,16.354,0,0,1-5.494,1.048,11.255,11.255,0,0,1-2.442-.261l-3.425-.764Zm-42.12-85.8c-9.723,2.348-20.181,4.668-31.734,4.985l-1.837.05L94.4,218.4c-.318,5.545-.814,11.182-1.293,16.633l0,.045c-.8,9.164-1.637,18.64-1.652,27.965a129.5,129.5,0,0,0,.69,14.075,96.161,96.161,0,0,0,2.533,14.1l.013.053.017.053a56.046,56.046,0,0,0,3.848,9.276,34.755,34.755,0,0,0,4.805,6.987c3.623,4,7.772,6.116,12,6.118a13.406,13.406,0,0,0,5.608-1.262,18.85,18.85,0,0,0,5.243-3.7c3.367-3.279,6.35-8.095,8.866-14.312a113.217,113.217,0,0,0,4.26-10.554l0-.007c.882-2.417,1.794-4.916,2.8-7.3l.375-.885-.457-.846c-2.137-3.955-3.3-8.375-4.539-13.056-1.524-5.773-3.1-11.74-6.657-16.881-1.88-2.822-3.059-5.08-3.125-7.614l-.11-4.273-3.21,2.822A101.914,101.914,0,0,0,106.8,256.017l-.012.018a1.256,1.256,0,0,1-1.116.655,1.842,1.842,0,0,1-1.539-.861.909.909,0,0,1,.127-1.026,118.489,118.489,0,0,1,19.354-22.065l.182-.162.139-.2c4.267-6.214,5.941-13.571,6.593-18.649l.37-2.881Zm219.587,48.208c-7.888,8.139-14.136,13.889-19.663,18.1a62.327,62.327,0,0,1-16.617,9.377c-11.311,4.132-24.017,4.624-45.068,5.441l-3.391.131.31,2.193c.6,4.256,1.174,8.558,1.7,12.787l.271,2.194,2.156-.49a43.805,43.805,0,0,1,9.941-.949c2.042,0,4.056.074,6.189.152l.047,0,.08,0c2.083.076,4.238.154,6.423.154,1.069,0,2.064-.019,3.041-.057A67.895,67.895,0,0,0,341.3,286.222l.027-.031c.692-.756,1.4-1.537,2-2.21l.016-.018a69.632,69.632,0,0,1,7.958-7.957l.816-.656-.075-1.045c-.336-4.7-.645-9.058-.947-13.32l-.316-4.465ZM20.083,225.5a88.57,88.57,0,0,0-5.84,16.546,66.512,66.512,0,0,0-1.9,15.422,52.155,52.155,0,0,0,1.84,13.955,44.663,44.663,0,0,0,5.366,12.1,43.345,43.345,0,0,0,8.028,9.314,47.453,47.453,0,0,0,10.642,6.975,57.137,57.137,0,0,0,12.973,4.361,72.838,72.838,0,0,0,15.047,1.507h.007a92.439,92.439,0,0,0,12.6-.9,10.619,10.619,0,0,0,7.787-3.8c2.642-3.256,3.51-8.435,2.578-15.39q-.046-.664-.09-1.329l-.005-.073-.005-.088,0-.022c-.383-5.672-.78-11.535-1.609-17.277-.284-1.969-.427-3.967-.579-6.081v-.007a55.237,55.237,0,0,0-1.435-10.5l-.026-.1-.036-.094c-2.471-6.474-6.993-10.7-13.823-12.919-5.823-1.893-12.681-2.13-19.313-2.36-5.76-.2-11.715-.4-16.8-1.7a23.362,23.362,0,0,1-6.763-2.786,16.932,16.932,0,0,1-5.163-5.027l-1.979-2.965Zm220-81.221c2.674,16.916,5.194,34.141,7.632,50.8l.012.082.008.059c1.06,7.245,2.261,15.457,3.445,23.413,1.67,11.151,3.534,22.462,5.338,33.4l.019.116.005.036,0,.014c1.946,11.8,3.958,24.011,5.729,36.029l.262,1.777,2.088-.082.059,0c11.78-.462,21.085-.826,28.561-1.62,7.934-.843,13.817-2.185,19.076-4.352,11.149-4.594,20.55-13.359,37.57-29.744l.675-.65-.068-.934c-1.3-18.009-2.63-36.262-3.96-54.252L346.214,194l-3.089,3.1a122.565,122.565,0,0,1-17.2,14.729,65.876,65.876,0,0,1-15.885,8.151,74.206,74.206,0,0,1-17.011,3.574,198.955,198.955,0,0,1-20.568.8c-3.1,0-6.367-.028-8.865-.052h-.067l-.067,0-.115,0a.851.851,0,0,1-.707-.256,1.356,1.356,0,0,1-.282-.846,1.464,1.464,0,0,1,1.275-1.593c3.754.055,6.767.08,9.482.08a171.383,171.383,0,0,0,21.155-1.006,66.378,66.378,0,0,0,17.15-4.278,69.893,69.893,0,0,0,16.015-9.321A175.442,175.442,0,0,0,345.3,191.167l.652-.648-.068-.916c-1.976-26.9-4.078-54.282-6.245-81.394l-.256-3.191-2.756,1.629c-6.034,3.567-10.726,8.771-15.264,13.8l-.071.078c-.984,1.091-2,2.219-3.011,3.3l-.059.068a53.1,53.1,0,0,1-10.833,9.721,54.057,54.057,0,0,1-12.24,6.079c-7.8,2.733-16.794,4.062-27.507,4.062a221.426,221.426,0,0,1-25.356-1.786l-2.619-.306Zm-61.743,72.206c-12.705,4.006-25.5,8.064-38.037,12.06-.414.132-.835.252-1.28.379l-.01,0-.062.018c-2.382.677-5.081,1.444-6.856,4.092a6.959,6.959,0,0,0-.918,6.268,17.715,17.715,0,0,0,2.66,4.688l.014.019c.516.725,1,1.408,1.391,2.076l.024.041c2.511,4.08,3.617,8.827,4.788,13.854v0c1.463,6.273,2.974,12.758,7.447,17.962,2.048,3.163,6.38,5.072,9.654,6.117a47.121,47.121,0,0,0,13.939,2.089,32.558,32.558,0,0,0,9.825-1.344c3.3-1.07,5.578-2.723,6.77-4.914a7.71,7.71,0,0,0,.814-4.9,14.192,14.192,0,0,0-2.281-5.544l-1.081-1.669-1.676,1.071a31.49,31.49,0,0,1-14.431,4.012,8.61,8.61,0,0,1-4.943-1.149.283.283,0,0,1-.02-.157.821.821,0,0,1,.3-.577c1.322-.807,3.32-.893,5.435-.984a18.091,18.091,0,0,0,8.968-2.171l.006,0a22.053,22.053,0,0,1,3.671-1.429l1.044-.258.361-1.013a17.523,17.523,0,0,0,1.21-5.7,7.444,7.444,0,0,0-2.295-5.711l-.9-.846-1.158.418c-1.706.617-3.522,1.379-5.124,2.05-4.687,1.962-9.534,3.991-14.161,3.991a14.837,14.837,0,0,1-1.721-.1,1.018,1.018,0,0,1-.42-.624.325.325,0,0,1-.007-.147,45.382,45.382,0,0,1,9.633-3.566l.012,0a51.354,51.354,0,0,0,10.383-3.838l.68-.368.255-.73a10.239,10.239,0,0,0,.462-6.368,11.9,11.9,0,0,0-3.289-5.061l-.95-.963-1.247.523c-1.22.51-2.43,1.022-3.772,1.591-4.414,1.868-8.977,3.8-13.534,5.476a1.227,1.227,0,0,1-.415.082c-.662,0-1.246-.8-1.408-1.542a1.652,1.652,0,0,1,.037-.949.918.918,0,0,1,.52-.507l.073-.036a120.717,120.717,0,0,1,13.009-5.349c5.84-2.141,11.879-4.355,17.244-7.659l.1-.06.091-.072a8.536,8.536,0,0,0,2.939-3.944,6.559,6.559,0,0,0-.021-4.275,8.26,8.26,0,0,0-7.821-5.288A8.741,8.741,0,0,0,178.339,216.481ZM392.4,242.929c-5.383,3.139-11.509,4.238-18,5.4-7.134,1.28-14.511,2.6-20.774,6.895l-.948.65.084,1.147c.4,5.481.724,9.89,1.011,13.876l.2,2.747,2.551-1.038a83.7,83.7,0,0,1,13.4-3.93l.006,0c5.735-1.315,10.688-2.451,15.021-5.693a22.731,22.731,0,0,0,5.935-6.743,44.473,44.473,0,0,0,4.451-11.054l1.3-4.728ZM185.8,212.568a10.911,10.911,0,0,1,7.522,13.415l-.186.672.272.643a8.19,8.19,0,0,1-.359,6.767,11.184,11.184,0,0,1-5.088,5.19l-1.577.765.551,1.663a10.516,10.516,0,0,1,.24,3.659c-.091,2.077-.194,4.432,1.237,6.643l.606.935,1.114-.022a46.371,46.371,0,0,0,11.314-1.65,59.828,59.828,0,0,0,10.337-3.918c6.575-3.162,12.8-7.348,18.826-11.395l.011-.007c6-4.033,12.208-8.2,18.618-11.239l1.344-.636-.222-1.471c-2.705-17.872-5.625-36.011-8.448-53.553l0-.017-.036-.223c-1.248-7.753-2.539-15.772-3.8-23.713l-.508-3.2-2.633,1.891c-5.781,4.154-10.881,8.371-15.812,12.451l-.007.005c-7.775,6.431-15.119,12.506-23.527,16.865-9.275,4.807-18.913,7.046-30.328,7.046l-.68,0-2.624-.021.675,2.535c2.64,9.908,5.387,20.242,8.164,30.713l.535,2.015,1.991-.617c.776-.241,1.553-.5,2.3-.759l.007,0,.051-.017a24.328,24.328,0,0,1,7.6-1.736A9.516,9.516,0,0,1,185.8,212.568ZM344.27,81.871c-.645.016-1.325.049-2.077.1l-2.02.135.159,2.019c2.42,30.533,4.566,61.611,6.64,91.668l0,.018.009.133,0,.022c1.656,23.992,3.368,48.8,5.215,73.245l.238,3.143,2.742-1.553c5.154-2.92,10.982-3.9,17.152-4.937,5.967-1,12.137-2.041,17.758-4.98a43.85,43.85,0,0,0,7.735-4.707,38.126,38.126,0,0,0,6-5.731,41.925,41.925,0,0,0,7.524-13.7c3.325-9.749,3.931-20.755,4.518-31.4.209-3.8.425-7.736.77-11.5l.322-3.52-3.183,1.536a49.624,49.624,0,0,1-12.362,3.9c-4.318.824-8.834,1.283-13.2,1.727-9.325.947-18.967,1.926-27.789,6.474a1.629,1.629,0,0,1-.725.189,1.837,1.837,0,0,1-1.608-1.426.962.962,0,0,1,.625-1.211l.046-.023.046-.026a42.744,42.744,0,0,1,12.784-4.506c4.629-.941,9.559-1.442,14.327-1.926l.024,0a127.332,127.332,0,0,0,16.25-2.353,44.612,44.612,0,0,0,7.624-2.483,31,31,0,0,0,6.916-4.1l.725-.572.033-.924a31.33,31.33,0,0,0-.517-7.643,13.751,13.751,0,0,0-3.207-6.617l-.624-.671-.915.033c-.276.01-.545.015-.8.015a13.9,13.9,0,0,1-5.444-.967,8.324,8.324,0,0,1-3.306-2.47c-3.662-4.532-2.62-12.6-1.673-17.009l.062-.29-.024-.3a7.945,7.945,0,0,0-1.555-3.9l0-.005a10.5,10.5,0,0,1-.683-1.139l-.026-.052c-1.276-2.435-.716-5.022-.068-8.017l0-.018a26.858,26.858,0,0,0,.788-5.467l0-.183-.032-.181c-.1-.555-.216-1.129-.32-1.633-.675-3.273-.975-5.368.552-6.913L397.378,98a46.262,46.262,0,0,1-13.383,4.22,85.35,85.35,0,0,1-14.009.941c-2.5,0-5.084-.054-7.581-.106l-.092,0c-2.4-.05-5.126-.107-7.8-.107-.49,0-.976,0-1.443.005h-.018a1.032,1.032,0,0,1-.871-.333,1.523,1.523,0,0,1-.318-.976,1.566,1.566,0,0,1,.327-1.008,1.05,1.05,0,0,1,.844-.355c5.476.377,9.928.553,14.011.553,12.815,0,22.51-1.841,30.51-5.8a43.125,43.125,0,0,0,12.465-9.286,55.7,55.7,0,0,0,9.788-15.1l.177-.392v-.429a175.994,175.994,0,0,0-3.569-35.618l-3.951.586A50.407,50.407,0,0,1,404,67.619a40.864,40.864,0,0,1-11.954,11.563,36.929,36.929,0,0,1-16.222,5.471c-1.072.1-2.207.154-3.373.154a81.671,81.671,0,0,1-13.216-1.447l-.022,0a85.878,85.878,0,0,0-13.869-1.5C344.983,81.858,344.62,81.862,344.27,81.871ZM58.6,155.441c-4.414,1.176-8.621,2.664-12.552,4.087l-.2.07-.177.11a53.806,53.806,0,0,0-20.936,24.138c-2.892,6.541-4.394,12.586-4.466,17.967a23.29,23.29,0,0,0,3.552,13.27,20.917,20.917,0,0,0,4.377,4.836,24.336,24.336,0,0,0,5.612,3.374,34.24,34.24,0,0,0,13.547,2.614h.006a46.094,46.094,0,0,0,13.357-2.035,48.132,48.132,0,0,0,12.765-6.006,42.364,42.364,0,0,0,10.508-9.885,37.965,37.965,0,0,0,6.458-13.648l.015-.061.011-.062c.276-1.526.6-3.092.944-4.751l.018-.085c1.041-5.025,2.118-10.22,2.156-15.4.047-6.143-1.431-11.062-4.517-15.038l-.121-.156-.148-.129a20.792,20.792,0,0,0-7.575-4.158,28.835,28.835,0,0,0-8.477-1.179A55.257,55.257,0,0,0,58.6,155.441Zm70.248-2.611c7.343,19.137,12.515,39.223,17.517,58.648l0,.006.192.744c.693,2.689,1.409,5.47,2.128,8.232l.533,2.048,2.015-.648,13.718-4.411,3.42-1.1-.5-1.845c-1.187-4.346-2.264-8.24-3.129-11.368l0-.017c-2.6-9.392-4.315-15.6-5.187-19.833a25.129,25.129,0,0,1-.632-4.653,2.62,2.62,0,0,1,.255-1.485c.146-.192.731-.419,2.684-.419.619,0,1.328.021,2.079.042l.154,0,.276.008c.969.029,2.014.057,3.179.057a54.253,54.253,0,0,0,15.717-2.234,67.639,67.639,0,0,0,10.5-4.109,94.285,94.285,0,0,0,12.235-7.231,106.082,106.082,0,0,0,11.659-9.643c2.8-2.55,5.692-5.185,8.678-7.466a40.967,40.967,0,0,1,9.366-5.554l1.516-.617-.305-1.607a98.948,98.948,0,0,1-1.528-12.152c-.008-.226.056-.294.08-.32a.821.821,0,0,1,.566-.186.7.7,0,0,1,.727.446,90.642,90.642,0,0,1,2.4,11.7l.23,1.681,1.7.047c4.048.11,8.287.4,12.386.679l.034,0c5.473.374,11.133.762,16.741.762a80.468,80.468,0,0,0,16.031-1.423,50.189,50.189,0,0,0,15.408-5.719c7-3.882,12.376-9.72,17.572-15.366l.011-.012c2.8-3.039,5.691-6.18,8.751-8.9a39.722,39.722,0,0,1,9.959-6.692l1.264-.572-.095-1.385c-.367-5.369-.672-10.807-.908-16.163l-.1-2.362-2.312.495a45.583,45.583,0,0,0-16.2,7.3A142.12,142.12,0,0,0,305.9,101.4a129.367,129.367,0,0,1-14.452,11.614,46.834,46.834,0,0,1-7.811,4.175,35.093,35.093,0,0,1-8.6,2.355,40,40,0,0,1-5.3.331,98.983,98.983,0,0,1-13.882-1.334l-.04-.006c-3.306-.474-6.722-.965-10.132-1.209-1.133-.1-2.29-.151-3.436-.151a39.186,39.186,0,0,0-23.7,7.979,122.947,122.947,0,0,0-13.961,12.595l-.033.033c-3.236,3.234-6.583,6.577-10.082,9.506a50.581,50.581,0,0,1-11.216,7.331,54.562,54.562,0,0,1-10.208,2.909,59.489,59.489,0,0,1-10.7.962,62.431,62.431,0,0,1-15.914-2.07,59.82,59.82,0,0,1-14.717-6.035l-4.9-2.834ZM132.668,98.7a89.569,89.569,0,0,0-10.3,8.936,77.164,77.164,0,0,0-8,9.551,78.064,78.064,0,0,0-10.33,20.7c-4.777,14.345-6.049,29.856-7.4,46.277v.009c-.422,5.147-.859,10.469-1.412,15.824l-.19,1.842,1.823.331a191.021,191.021,0,0,0,33.988,3.055c1.013,0,2.038-.008,3.045-.024l1.37-.022.474-1.284a14.641,14.641,0,0,1,3.574-5.457l.833-.8-.275-1.121c-2.7-10.993-6.484-21.808-10.139-32.268l-.007-.022c-2.326-6.656-4.731-13.538-6.823-20.373l-.016-.05a.61.61,0,0,1,.135-.556,1.4,1.4,0,0,1,1.081-.567,1.2,1.2,0,0,1,.71.245l.05.039a61.075,61.075,0,0,0,19.4,10.188l2.857.895-.266-2.981a281.955,281.955,0,0,0-6.132-38.431c-.1-.434-.216-1.125-.35-1.925l-.019-.115a48.876,48.876,0,0,0-1.522-6.947,12.009,12.009,0,0,0-1.544-3.267,4.521,4.521,0,0,0-3.212-2.067l-.781-.085ZM114.692,53.539l-6.051,1.567,5.836,2.236a40.122,40.122,0,0,1,10.174,5.721,46.131,46.131,0,0,1,8.152,8.21,63.264,63.264,0,0,1,6.421,10.256,93.38,93.38,0,0,1,4.926,11.8,167.9,167.9,0,0,1,6.364,26.07c1.527,8.885,2.59,17.813,3.529,25.69v.006l0,.023c.37,3.1.718,6.035,1.08,8.842l.2,1.589,1.595.148c1.788.166,3.611.25,5.418.25a58.773,58.773,0,0,0,7.861-.529l2.1-.284-.4-2.078c-1.283-6.641-2.259-13.555-3.291-20.875-1.849-13.109-3.76-26.662-7.615-39.287a92.294,92.294,0,0,0-7.539-18.151,69.009,69.009,0,0,0-5.347-8.2,61.888,61.888,0,0,0-6.639-7.405l-.582-.548h-.126a30.844,30.844,0,0,0-26.067-5.054ZM165.38,100.48c2.348,9.918,4.055,18.127,5.37,25.835a227.4,227.4,0,0,1,3.045,26.127l.135,2.506,2.412-.69c11.391-3.262,19.971-11.678,28.268-19.818,5.038-4.944,10.248-10.055,15.917-13.765a38.366,38.366,0,0,1,8.852-4.393,31.432,31.432,0,0,1,10.13-1.657l2.108,0-.113-2.105a120.26,120.26,0,0,0-2.4-18.923A76.855,76.855,0,0,0,232.9,75.431l-.374-.747-1.291-.423c-2.04-.667-4.351-1.422-6.647-2.391l-2.73-1.153-.048,2.963a77.744,77.744,0,0,1-2.193,17.729,51.112,51.112,0,0,1-7.014,16.1l-.01.014-.193.292-.183.277c-2.372,3.6-4.826,7.329-8.354,7.329a6.013,6.013,0,0,1-1.184-.123l-.154-.031a79.23,79.23,0,0,1-17.917-5.944,58.606,58.606,0,0,1-15.884-10.733l-4.925-4.8ZM36.555,145.031l-.231.309A17.372,17.372,0,0,0,49.4,151.106a21.21,21.21,0,0,0,8.5-1.858,23.982,23.982,0,0,0,7.331-5.093l.023-.024a38.4,38.4,0,0,0,7.874-13.8,47.961,47.961,0,0,0,2.052-8.415,40.425,40.425,0,0,0,.393-8.58c-.481-7.283-3.152-13.089-7.724-16.789l-.066-.053-.069-.047a9.341,9.341,0,0,0-5.295-1.74,10.569,10.569,0,0,0-6.945,2.939,25.366,25.366,0,0,0-5.048,6.38,38.939,38.939,0,0,0-5,14.056,32.268,32.268,0,0,0-.343,4.645c.021,2.714.535,4.614,1.571,5.807a3.857,3.857,0,0,0,2.991,1.363,5.191,5.191,0,0,0,1.63-.281l.043-.014c1.779-.635,3.348-2.115,4.8-4.525a38.731,38.731,0,0,0,2.5-5.281c.248-.606.461-1.127.621-1.459l.086-.179.049-.192a1.041,1.041,0,0,1,1.105-.892,1.779,1.779,0,0,1,1.354.616,1.133,1.133,0,0,1,.161,1.07l-.025.1-.014.1a19.815,19.815,0,0,1-5.125,11.075,10.983,10.983,0,0,1-7.582,3.627,6.666,6.666,0,0,1-5.131-2.321,10.905,10.905,0,0,1-2.314-4.937,24.887,24.887,0,0,1-.18-8.389l.01-.089A36.9,36.9,0,0,1,49.027,99.4a26.859,26.859,0,0,1,6.726-6.378,13.6,13.6,0,0,1,7.275-2.346,11.23,11.23,0,0,1,6.2,1.943A22.379,22.379,0,0,1,75.59,99.5l3.151,4.956L79.27,98.6c.58-6.408-1-11.857-4.563-15.76A17.651,17.651,0,0,0,68,78.311,22.214,22.214,0,0,0,59.9,76.849a27.338,27.338,0,0,0-20.718,9.723,47.586,47.586,0,0,0-8.1,13.409,51.445,51.445,0,0,0-3.6,15.488A45.734,45.734,0,0,0,28.975,131.2a37.85,37.85,0,0,0,7.291,14.071l.289-.239ZM79.24,120.581a50.908,50.908,0,0,1-3.4,13.436,42.674,42.674,0,0,1-6.869,11.575l-3.9,4.609,5.883-1.368a72.111,72.111,0,0,0,13.455-4.36,36.992,36.992,0,0,0,9.006-5.63c4.819-4.151,7.623-9.032,10.871-14.684l0-.006A108.12,108.12,0,0,1,115.7,107.212a38.206,38.206,0,0,0,7.916-10.734,24.385,24.385,0,0,0,2.516-11.641,22.4,22.4,0,0,0-2.9-9.975,31.7,31.7,0,0,0-7.828-9.022l-.086-.07-.093-.059a31.5,31.5,0,0,0-9.054-3.976,37.431,37.431,0,0,0-9.516-1.174,64.145,64.145,0,0,0-18.59,3.163c-6.02,1.83-11.894,4.214-17.077,6.317l-.113.046.606,3.848A26.665,26.665,0,0,1,71.8,76.6a17.6,17.6,0,0,1,6.343,5.486C81.133,86.3,82.606,92.2,82.526,99.615A81.953,81.953,0,0,1,79.69,118.8h-.256Zm345.079-1.89c.032.054.118.2-.03.515a25.927,25.927,0,0,1-7.178,6.74,31.2,31.2,0,0,1-9.574,4.046l-.692.164-.434.564a6.246,6.246,0,0,0-1.256,3.29,6.781,6.781,0,0,0,.547,3.294,5.664,5.664,0,0,0,4.511,3.455,11.091,11.091,0,0,0,2.413.249,20.585,20.585,0,0,0,6.562-1.238,35,35,0,0,0,6.612-3.113c4.711-2.844,8.089-6.315,9.268-9.526l.051-.141.031-.148a15,15,0,0,0-.988-9.351,12.653,12.653,0,0,1-1.064-4.385,17.472,17.472,0,0,1,1.761-7.141l.108-.248.037-.267a13.982,13.982,0,0,0-1.583-9.02,13.922,13.922,0,0,1-1.39-3.946,18.027,18.027,0,0,1,.458-6.713l.193-.862-.508-.724c-1.585-2.255-3.413-3.4-5.434-3.4a6.2,6.2,0,0,0-3.549,1.219c-6.5,2.87-12.011,6.841-17.55,11l-.26.2-.185.267a13.141,13.141,0,0,0-2.488,6.789,11.779,11.779,0,0,0,2.219,7.356l.99,1.449,1.566-.794a50.75,50.75,0,0,0,7.078-4.632l.013-.01a47.066,47.066,0,0,1,6.416-4.225.837.837,0,0,1,.3-.05,1.136,1.136,0,0,1,.976.491.608.608,0,0,1-.122.262,25.337,25.337,0,0,1-7.172,6.557,86.291,86.291,0,0,1-9.158,5.078l-.688.34-.284.714a14.759,14.759,0,0,0-.9,7.142,11.921,11.921,0,0,0,3.04,6.769l.813.866,1.149-.3c4.872-1.267,10.576-5.814,13.64-8.257l.234-.186.027-.022.348-.276a.818.818,0,0,1,.492-.173A.769.769,0,0,1,424.319,118.691ZM256.965,84.732a182.866,182.866,0,0,1,5,30.367l.13,1.635,1.629.193a45.077,45.077,0,0,0,5.261.314,35.768,35.768,0,0,0,20.911-6.27l1.17-.832-.415-1.375a30.749,30.749,0,0,0-4.9-9.617,37.851,37.851,0,0,0-7.462-7.364,66.36,66.36,0,0,0-18.737-9.433l-3.492-1.2ZM224,43.176c-1.457,3.3-1.427,6.919.09,11.056a53.3,53.3,0,0,0,5.234,9.716l.005.009,0,.005c1.193,1.894,2.321,3.681,3.162,5.347l.031.061.035.059c6.913,11.65,10.794,26.265,11.534,43.44l.076,1.778,1.775.13c3.239.238,6.528.7,9.707,1.151q.879.124,1.759.247l2.727.379-.483-2.711c-.431-2.417-.844-4.855-1.244-7.214a245.779,245.779,0,0,0-5.177-25.161,97.345,97.345,0,0,0-4.25-12.208,73.9,73.9,0,0,0-6.252-11.679c-4.865-7.378-10.1-12.41-16-15.385l-1.88-.948ZM202.551,32.1a103.038,103.038,0,0,1-13.785,14.843,79.247,79.247,0,0,1-16.54,11.189l-.947.475-.139,1.05c-.894,6.752-4.244,12.526-10.242,17.655l-.986.844.369,1.244a39.35,39.35,0,0,0,6.569,12.816,46.982,46.982,0,0,0,10.274,9.744A60.352,60.352,0,0,0,189.76,108.7a70.7,70.7,0,0,0,13.755,3.847l1,.174.731-.7c4.919-4.739,8.5-11.368,10.638-19.7a81.164,81.164,0,0,0,2.207-22.032l-.022-.746-.506-.548a41.677,41.677,0,0,1-5.728-7.9,42.988,42.988,0,0,1-3.637-8.66,57.373,57.373,0,0,1-2.062-19.029l.293-6.358Zm66.054,38.828A35.825,35.825,0,0,1,272.353,83.3l.114,1.058.94.5a50.7,50.7,0,0,1,11.918,8.492,34.358,34.358,0,0,1,7.981,11.842l1.077,2.714,2.141-1.985c6.074-5.63,10.277-9.341,14.053-12.407a82.594,82.594,0,0,1,11.673-8.157c7.346-4.113,14.493-5.868,23.9-5.868,6.292,0,13.962.779,24.87,2.527l2.022.324.276-2.03q.885-6.51,1.251-13.068a43.12,43.12,0,0,1-6.617.533,47.714,47.714,0,0,1-11.273-1.454,35.821,35.821,0,0,0-8.5-1.122,40.885,40.885,0,0,0-8.648,1.116l-.008,0a53.027,53.027,0,0,1-11.7,1.389,43.078,43.078,0,0,1-9.087-.837c-.761-.156-1.516-.335-2.181-.493l-.068-.015-.009,0-.177-.042a35.532,35.532,0,0,0-17.348.01,49.278,49.278,0,0,1-11.513,1.4,48.824,48.824,0,0,1-11.507-1.407,35.965,35.965,0,0,0-8.517-1.115c-.745,0-1.489.028-2.247.086A42.489,42.489,0,0,1,268.605,70.927Zm90.955-6.734a41.42,41.42,0,0,0,8.762,1.13,33.536,33.536,0,0,0,6.369-.651q.128-3.168.134-6.338a43.786,43.786,0,0,1-6.889.571,47.6,47.6,0,0,1-11.259-1.45,35.832,35.832,0,0,0-8.5-1.122,40.893,40.893,0,0,0-8.649,1.116l-.007,0a53.034,53.034,0,0,1-11.7,1.389,42.547,42.547,0,0,1-11.522-1.39,35.532,35.532,0,0,0-17.348.01A49.541,49.541,0,0,1,287.333,59a44.073,44.073,0,0,1-10.225-1.349l-.01,0-.229-.05a40.5,40.5,0,0,0-9.421-1.3,37.4,37.4,0,0,0-8.839,1.154l-.437.1q1.4,1.252,2.7,2.6,1.286,1.336,2.444,2.737c1.323-.123,2.614-.184,3.9-.184A52.819,52.819,0,0,1,278.3,64.076l.007,0,.006,0a44.561,44.561,0,0,0,9.119,1.182,34.577,34.577,0,0,0,8.993-1.129,42.173,42.173,0,0,1,10.565-1.307.189.189,0,0,1-.039-.006,6.16,6.16,0,0,1,.887-.032,50.71,50.71,0,0,1,11.309,1.4,30.822,30.822,0,0,0,8.672,1.068,34.245,34.245,0,0,0,8.959-1.129,42.384,42.384,0,0,1,11.234-1.317A52.481,52.481,0,0,1,359.56,64.193Zm0-8.866a41.454,41.454,0,0,0,8.766,1.13,33.689,33.689,0,0,0,6.486-.673q-.042-3.124-.2-6.243a45.99,45.99,0,0,1-6.4.433,41.3,41.3,0,0,1-11.152-1.307l-.008,0-.006,0a33.594,33.594,0,0,0-9.027-1.135,31,31,0,0,0-8.657,1.059l-.008,0-.008,0h-.007a42.663,42.663,0,0,1-11.512,1.381,43.089,43.089,0,0,1-9.087-.837c-.76-.155-1.494-.329-2.2-.5l-.022,0-.006,0-.024-.005-.18-.043a31.114,31.114,0,0,0-8.672-1.058,37.525,37.525,0,0,0-9.111,1.166h-.006a43.1,43.1,0,0,1-11.075,1.278,41.091,41.091,0,0,1-11.326-1.345,34.017,34.017,0,0,0-4.73-.9,35.162,35.162,0,0,0-3.878-.212,37.842,37.842,0,0,0-8.89,1.081A49.018,49.018,0,0,1,247.09,50h-.067q1.68.838,3.322,1.819a51.212,51.212,0,0,1,5.2,3.557l.5-.1.479-.1a47.324,47.324,0,0,1,16.287-.953,39.236,39.236,0,0,1,5.946,1.1l.013,0,.006,0a30.461,30.461,0,0,0,8.654,1.067,34.575,34.575,0,0,0,8.992-1.129,42.157,42.157,0,0,1,10.566-1.307.188.188,0,0,1-.039-.006,6.16,6.16,0,0,1,.887-.032,50.737,50.737,0,0,1,11.309,1.4,30.822,30.822,0,0,0,8.672,1.068,34.245,34.245,0,0,0,8.959-1.129,42.384,42.384,0,0,1,11.234-1.317A52.493,52.493,0,0,1,359.559,55.328ZM126.093-42.889c.036,3.047-.158,7.64-.382,12.958v0c-.487,11.518-1.154,27.293-.143,41.786a111.41,111.41,0,0,0,3.039,20.331,48.389,48.389,0,0,0,2.98,8.376,25.724,25.724,0,0,0,4.34,6.575,15.09,15.09,0,0,0,11.015,5.017l.089,0,.089-.006a88.1,88.1,0,0,0,20.214-3.413A41.107,41.107,0,0,0,182,40.905a42.39,42.39,0,0,0,10.133-13.193,95.176,95.176,0,0,0,6.962-19.141l.477-1.8-1.76-.6a15.57,15.57,0,0,1-10.086-9.738c-1.769-4.565-2.214-10.163-2.644-15.576-.391-4.934-.8-10.036-2.224-14.348-1.7-5.125-4.648-8.547-9.022-10.463l-.064-.028-.067-.023a41.031,41.031,0,0,0-14.132-2.18c-4.266,0-8.59.427-12.774.841l-.027,0c-4.079.4-8.294.82-12.331.82a46.027,46.027,0,0,1-6.083-.371l-2.29-.3ZM211.992-5.7A11.343,11.343,0,0,0,208.1-1.416c-.29.494-.595,1-.89,1.5A36.6,36.6,0,0,0,203,8.775a12.9,12.9,0,0,0-.446,5.054,11.423,11.423,0,0,0,2.018,5.183l.394.567.661.2a10.881,10.881,0,0,0,3.2.492c4.062,0,7.974-2.417,11.014-6.8a25.3,25.3,0,0,0,4.379-12.023l.134-2.126h-.229a7.934,7.934,0,0,0-2.065-4.561,6.86,6.86,0,0,0-4.991-2.036A9.434,9.434,0,0,0,211.992-5.7ZM324.769,11.422h13.179a12.455,12.455,0,0,0,12.2-9.722,1.219,1.219,0,0,1,.76-.871v0l12.019-4.5q-.3-.753-.611-1.5l-.189-.46-.383-.317A1.221,1.221,0,0,1,361.6-7.2a1.8,1.8,0,0,1,1.452-1.327l.055,0,.055-.007q.363-.048.725-.092v-.054h-9.215a1.223,1.223,0,0,1-1.159-.827,1.223,1.223,0,0,1,.41-1.363,8.366,8.366,0,0,0,3.263-6.658,8.364,8.364,0,0,0-3.264-6.655,1.221,1.221,0,0,1-.41-1.364,1.222,1.222,0,0,1,1.161-.826h9.215v-4.063H358.07a1.222,1.222,0,0,1-1.16-.826,1.223,1.223,0,0,1,.409-1.365,5.235,5.235,0,0,0,2.047-4.173,5.238,5.238,0,0,0-2.047-4.172,1.222,1.222,0,0,1-.409-1.364,1.221,1.221,0,0,1,1.16-.826h5.812v-1.347h-1.293a1.206,1.206,0,0,1-1.171-.958c-16.341-4.653-31.552-12.482-36.647-15.238V-53h6.66a1.224,1.224,0,0,1,.751.257,12.568,12.568,0,0,1,0,19.866,1.232,1.232,0,0,1-.751.257h-6.66v4H335.8a1.233,1.233,0,0,1,.748.255,18.86,18.86,0,0,1,0,29.811,1.226,1.226,0,0,1-.748.254H324.769ZM281.63-10.709h13.211a1.221,1.221,0,0,1,1.131.765l8.568,21.363h17.783V1.7H304.467a1.223,1.223,0,0,1-.751-2.189,16.409,16.409,0,0,0,0-25.943,1.224,1.224,0,0,1-.407-1.363,1.223,1.223,0,0,1,1.158-.825h17.853v-4H311.27a1.223,1.223,0,0,1-1.159-.827,1.223,1.223,0,0,1,.41-1.363,10.12,10.12,0,0,0,0-16,1.22,1.22,0,0,1-.411-1.364A1.219,1.219,0,0,1,311.271-53h11.052v-7.89c-18.475,8.342-32.5,10.971-38.564,11.766a1.214,1.214,0,0,1-.833.338h-1.3v1.254h3.232a1.227,1.227,0,0,1,.749.257,7.639,7.639,0,0,1,2.954,6.033,7.64,7.64,0,0,1-2.954,6.034,1.225,1.225,0,0,1-.751.254h-3.227v3.326H287.5a1.235,1.235,0,0,1,.748.255,11.434,11.434,0,0,1,0,18.069,1.219,1.219,0,0,1-.748.259H281.63ZM307.6-.743h27.777a16.412,16.412,0,0,0,0-25.43H307.6A18.874,18.874,0,0,1,307.6-.743Zm69.432-8.221,20.127-7.545,0,0a121.324,121.324,0,0,1-23.976-18.653A7.667,7.667,0,0,1,370.37-30.7a1.238,1.238,0,0,1-.749.257h-3.3v4.066h5.48a1.232,1.232,0,0,1,.751.254,10.8,10.8,0,0,1,4.2,8.592,10.8,10.8,0,0,1-3.929,8.372Q374.966-9.136,377.028-8.964Zm-17.4-8.567a10.8,10.8,0,0,1-2.079,6.406H371.37a8.369,8.369,0,0,0,2.947-6.4,8.37,8.37,0,0,0-2.947-6.4H357.545A10.792,10.792,0,0,1,359.624-17.531Zm-87.357,2.039h14.8a8.991,8.991,0,0,0,3.164-6.845,8.991,8.991,0,0,0-3.164-6.847h-14.8A11.456,11.456,0,0,1,272.267-15.492ZM158.932-50.2v.583c6.546,0,11.427.706,15.362,2.221a20.768,20.768,0,0,1,10.772,9.23A51.9,51.9,0,0,1,186.906-33c1.712,5.422,3.327,10.542,11.713,13.407l.045.014a24.555,24.555,0,0,0,7.389,1.163,23.853,23.853,0,0,0,13.92-4.557,26.964,26.964,0,0,0,5.261-4.973,27.779,27.779,0,0,0,3.777-6.169,25.491,25.491,0,0,0,2.119-13.34,23.2,23.2,0,0,0-1.886-6.8,24.471,24.471,0,0,0-4.159-6.321l-.059-.062a18.841,18.841,0,0,0-1.564-1.368c-1.884-1.534-2.5-2.229-2.23-3.083l.019-.061a29.33,29.33,0,0,0-.776-18.179A28.358,28.358,0,0,0,215.94-91.3a26.5,26.5,0,0,0-7.062-6.122,35.986,35.986,0,0,0-11.523-4.269,62.866,62.866,0,0,0-12.366-1.088c-5.545,0-10.976.494-16.227.973l-.023,0c-.978.089-2.028.185-3.074.275l-1.513.132-.03,0c-8.213.715-16.706,1.455-25.036,1.455a94.408,94.408,0,0,1-20.011-1.89,56.48,56.48,0,0,1-18.318-7.251l-3.424-2.138.373,4.019a38.879,38.879,0,0,0,5.529,16.3l.018.033c.528.946.984,1.763,1.276,2.426a3.5,3.5,0,0,1,.3.91,3.5,3.5,0,0,1-1.016.467,22.23,22.23,0,0,1-3.649.757c-3.524.5-8.778.878-15.58,1.29l-2.805.169,1.079,2.595a65.732,65.732,0,0,0,10.257,17.36,43.843,43.843,0,0,0,12.514,10.273,46.446,46.446,0,0,0,13.854,4.781,77.843,77.843,0,0,0,14.278,1.161c4.461,0,8.969-.253,12.945-.475l.036,0,.3-.017.022,0c4.153-.232,8.075-.452,11.865-.452V-50.2Zm202.877,13.4a7.686,7.686,0,0,1-1.061,3.922h8.433a5.258,5.258,0,0,0,1.736-3.919,5.382,5.382,0,0,0-.073-.716l0,0c-1.134-1.171-2.144-2.247-3.008-3.2h-7.083A7.7,7.7,0,0,1,361.809-36.806Zm-47.581,1.743H331a10.125,10.125,0,0,0,0-15.49H314.228A12.592,12.592,0,0,1,314.228-35.062ZM276.143-37.4h8.275a5.19,5.19,0,0,0,0-7.69h-8.275A7.66,7.66,0,0,1,276.143-37.4ZM48.149,204.436a2.241,2.241,0,0,1,.44-2.47,2.94,2.94,0,0,1,1.806-.878c.846,0,1.455.836,1.817,1.537a1.983,1.983,0,0,1-.085,1.952,2.527,2.527,0,0,1-2.278,1.116l-.093,0c-.027,0-.053,0-.077,0A1.793,1.793,0,0,1,48.149,204.436Zm106.638-167.8a4.521,4.521,0,0,1-1.284-1.653,35.232,35.232,0,0,1-1.69-3.839,29.969,29.969,0,0,0-1.826-4.055c-.932-1.754-1.257-3.274-.85-3.968.362-.617,1.6-.99,3.4-1.023h.03c2.029,0,4.329,4.083,4.953,7.6l.022.124.038.121c.633,2.029.382,4.72-.559,6a1.741,1.741,0,0,1-1.52.782A3.432,3.432,0,0,1,154.787,36.638Zm185.576-5.952a3.672,3.672,0,0,1-3.668-3.668V21.209a3.672,3.672,0,0,1,3.668-3.667h5.807a3.672,3.672,0,0,1,3.668,3.667v5.809a3.672,3.672,0,0,1-3.668,3.668Zm-1.223-9.474v5.807a1.225,1.225,0,0,0,1.223,1.222h5.807a1.226,1.226,0,0,0,1.222-1.222V21.212a1.225,1.225,0,0,0-1.222-1.223h-5.807A1.224,1.224,0,0,0,339.141,21.212Zm-15.688,9.474a3.672,3.672,0,0,1-3.668-3.668V21.209a3.672,3.672,0,0,1,3.668-3.667v0h5.808a3.671,3.671,0,0,1,3.668,3.668v5.807a3.672,3.672,0,0,1-3.668,3.668Zm-1.222-9.474v5.807a1.224,1.224,0,0,0,1.222,1.222h5.808a1.226,1.226,0,0,0,1.222-1.222V21.212a1.225,1.225,0,0,0-1.222-1.223h-5.808A1.224,1.224,0,0,0,322.231,21.212ZM306.54,30.686a3.672,3.672,0,0,1-3.668-3.668V21.209a3.672,3.672,0,0,1,3.668-3.667v0h5.808a3.671,3.671,0,0,1,3.667,3.668v5.807a3.672,3.672,0,0,1-3.667,3.668Zm-1.222-9.474v5.807a1.225,1.225,0,0,0,1.222,1.222h5.808a1.226,1.226,0,0,0,1.222-1.222V21.212a1.225,1.225,0,0,0-1.222-1.223H306.54A1.224,1.224,0,0,0,305.318,21.212ZM139.683,14.8a2.123,2.123,0,0,1-1.21-1.051c-.717-1.364-.583-3.991.349-6.855a18.708,18.708,0,0,1,2.458-5.025A7.938,7.938,0,0,1,145.043-1.2a.4.4,0,0,1,.118-.023c.07,0,.166.1.226.2a.8.8,0,0,1,.077.717,16.38,16.38,0,0,1-1.737,2.524l0,.005a17.389,17.389,0,0,0-2.456,3.808c-.989,1.637-.943,3.751-.9,5.617v.006a17.666,17.666,0,0,1-.039,2.281,1.867,1.867,0,0,1-.211.8,1.108,1.108,0,0,1-.419.056ZM159.789-7.926a10.92,10.92,0,0,1-1.026-5.17,9.887,9.887,0,0,1,1.1-4.793c1.107-.988,1.659-1.084,1.759-1.093.247.2.909,1.385,1,4.361A20.067,20.067,0,0,1,161.9-8.3l-.028.084a1.166,1.166,0,0,1-.959.811,1.263,1.263,0,0,1-.15.01A1.159,1.159,0,0,1,159.789-7.926Zm-23.026,0a10.924,10.924,0,0,1-1.026-5.171,9.894,9.894,0,0,1,1.1-4.793c1.1-.986,1.659-1.083,1.759-1.092.247.2.908,1.384,1,4.361a20.065,20.065,0,0,1-.723,6.317l-.028.085a1.163,1.163,0,0,1-.959.81,1.26,1.26,0,0,1-.149.01A1.173,1.173,0,0,1,136.762-7.925ZM390.308-72.186a65.978,65.978,0,0,1-11.21-6.086,66.359,66.359,0,0,1-9.768-8.06,66.4,66.4,0,0,1-8.06-9.768,66.011,66.011,0,0,1-6.085-11.211A65.571,65.571,0,0,1,350-133a65.584,65.584,0,0,1,5.187-25.69,65.955,65.955,0,0,1,6.085-11.211,66.507,66.507,0,0,1,8.059-9.768,66.5,66.5,0,0,1,9.768-8.059,65.952,65.952,0,0,1,11.211-6.085A65.588,65.588,0,0,1,416-199a65.581,65.581,0,0,1,25.69,5.187,65.947,65.947,0,0,1,11.211,6.085,66.512,66.512,0,0,1,9.769,8.059,66.465,66.465,0,0,1,8.059,9.769,65.979,65.979,0,0,1,6.086,11.21A65.588,65.588,0,0,1,482-133a65.588,65.588,0,0,1-5.187,25.69,65.979,65.979,0,0,1-6.086,11.21,66.464,66.464,0,0,1-8.059,9.769,66.574,66.574,0,0,1-9.769,8.06,66.011,66.011,0,0,1-11.211,6.085A65.584,65.584,0,0,1,416-67,65.593,65.593,0,0,1,390.308-72.186Zm47.957-60.985v33.646H453.58v-24H464.16v-10.737H453.58v-8.684H464.16v-10.737H453.58v-13.1H442.752l-27.135,38.516L388.932-166.79H378.105v13.1H367.527v10.739h10.579v8.684H367.527v10.737h10.579v24h15.318v-33.648l22.421,32.07,22.419-32.067,0,0Z" transform="translate(44 673)"/></g></svg>